<?xml version="1.0" encoding="UTF-8"?>
<!DOCTYPE svg PUBLIC "-//W3C//DTD SVG 1.1//EN" "http://www.w3.org/Graphics/SVG/1.1/DTD/svg11.dtd">
<svg xmlns="http://www.w3.org/2000/svg" version="1.1" width="512px" height="512px" style="shape-rendering:geometricPrecision; text-rendering:geometricPrecision; image-rendering:optimizeQuality; fill-rule:evenodd; clip-rule:evenodd" xmlns:xlink="http://www.w3.org/1999/xlink">
<g><path style="opacity:0.964" fill="#000000" d="M 315.5,41.5 C 360.835,41.3333 406.168,41.5 451.5,42C 461.333,43.8333 467.167,49.6667 469,59.5C 469.98,106.212 469.647,152.879 468,199.5C 460.535,213.08 449.701,216.58 435.5,210C 429.915,206.332 426.748,201.165 426,194.5C 425.667,168.833 425.333,143.167 425,117.5C 364.167,178.333 303.333,239.167 242.5,300C 229.959,308.37 218.792,306.87 209,295.5C 203.751,285.489 204.751,276.156 212,267.5C 272.5,207 333,146.5 393.5,86C 367.5,85.6667 341.5,85.3333 315.5,85C 302.611,81.4301 296.777,72.9301 298,59.5C 300.014,49.654 305.847,43.654 315.5,41.5 Z"/></g>
<g><path style="opacity:0.969" fill="#000000" d="M 99.5,105.5 C 145.835,105.333 192.168,105.5 238.5,106C 252.355,110.531 257.855,120.031 255,134.5C 251.977,142.192 246.477,147.025 238.5,149C 192.833,149.333 147.167,149.667 101.5,150C 93.6667,152.5 88.5,157.667 86,165.5C 85.3333,246.833 85.3333,328.167 86,409.5C 88.5,417.333 93.6667,422.5 101.5,425C 182.833,425.667 264.167,425.667 345.5,425C 353.333,422.5 358.5,417.333 361,409.5C 361.333,363.833 361.667,318.167 362,272.5C 366.531,258.645 376.031,253.145 390.5,256C 398.192,259.023 403.025,264.523 405,272.5C 405.667,318.833 405.667,365.167 405,411.5C 399.806,444.694 380.639,463.861 347.5,469C 264.833,469.667 182.167,469.667 99.5,469C 66.3058,463.806 47.1392,444.639 42,411.5C 41.3333,328.833 41.3333,246.167 42,163.5C 47.3455,130.322 66.5122,110.988 99.5,105.5 Z"/></g>
</svg>
