<svg width="42" height="42" viewBox="0 0 42 42" fill="none" xmlns="http://www.w3.org/2000/svg">
<rect width="42" height="42" rx="21" fill="#2574ED" fill-opacity="0.14"/>
<path d="M15.4753 9.76009C15.5634 9.75981 15.6514 9.75949 15.7395 9.75914C15.9776 9.75831 16.2158 9.75809 16.454 9.75803C16.6031 9.75796 16.7522 9.75776 16.9013 9.75751C17.4225 9.75665 17.9436 9.75626 18.4647 9.75634C18.949 9.75639 19.4333 9.7554 19.9176 9.75392C20.3346 9.75269 20.7516 9.75219 21.1686 9.75225C21.4172 9.75228 21.6657 9.75202 21.9142 9.75102C22.1482 9.7501 22.3821 9.75011 22.6161 9.75079C22.7014 9.75088 22.7868 9.75067 22.8721 9.7501C24.2146 9.7417 25.0053 10.2894 25.9361 11.2082C26.094 11.3645 26.2515 11.5212 26.4089 11.678C26.4503 11.7193 26.4918 11.7606 26.5346 11.8031C26.7312 11.9989 26.9278 12.1948 27.1242 12.3908C27.349 12.6152 27.5743 12.8392 27.7998 13.0629C27.9969 13.2583 28.1935 13.4543 28.3898 13.6505C28.4727 13.7332 28.5558 13.8157 28.639 13.8981C29.3938 14.6454 30.0304 15.384 30.0376 16.4992C30.0374 16.5738 30.0374 16.5738 30.0372 16.65C30.0374 16.7039 30.0376 16.7577 30.0378 16.8132C30.0384 16.9931 30.0383 17.1729 30.0383 17.3528C30.0385 17.482 30.0389 17.6112 30.0392 17.7404C30.04 18.0547 30.0402 18.3689 30.0403 18.6831C30.0403 18.9387 30.0405 19.1942 30.0408 19.4498C30.0417 20.1755 30.0421 20.9012 30.042 21.6269C30.042 21.6659 30.042 21.705 30.042 21.7453C30.042 21.7844 30.042 21.8235 30.042 21.8638C30.042 22.4975 30.0429 23.1311 30.0442 23.7648C30.0455 24.4164 30.0462 25.0681 30.0461 25.7197C30.0461 26.0852 30.0463 26.4506 30.0473 26.816C30.0482 27.1272 30.0484 27.4384 30.0478 27.7496C30.0474 27.9082 30.0475 28.0667 30.0483 28.2252C30.0529 29.3222 29.9281 30.184 29.134 31.0081C28.2431 31.7813 27.3312 31.826 26.208 31.8232C26.0823 31.8233 25.9567 31.8236 25.8311 31.8239C25.5264 31.8245 25.2217 31.8244 24.917 31.824C24.6691 31.8237 24.4213 31.8236 24.1735 31.8238C24.1381 31.8238 24.1027 31.8238 24.0662 31.8238C23.9943 31.8239 23.9224 31.8239 23.8505 31.824C23.1776 31.8244 22.5046 31.8239 21.8317 31.8232C21.2554 31.8225 20.679 31.8226 20.1027 31.8233C19.432 31.824 18.7614 31.8243 18.0907 31.8239C18.0191 31.8239 17.9474 31.8238 17.8758 31.8238C17.8406 31.8238 17.8053 31.8237 17.769 31.8237C17.5218 31.8236 17.2745 31.8238 17.0272 31.8241C16.7255 31.8245 16.4238 31.8244 16.122 31.8237C15.9684 31.8233 15.8147 31.8232 15.661 31.8236C14.5623 31.8262 13.6452 31.7304 12.8215 30.9143C12.2206 30.229 12.0024 29.5141 12.0065 28.6152C12.0063 28.5449 12.006 28.4745 12.0057 28.4042C12.005 28.2121 12.0052 28.02 12.0056 27.8278C12.0058 27.6202 12.0052 27.4125 12.0047 27.2048C12.0039 26.7985 12.0039 26.3921 12.0041 25.9857C12.0043 25.6553 12.0042 25.3248 12.004 24.9944C12.004 24.9473 12.0039 24.9002 12.0039 24.8516C12.0038 24.756 12.0037 24.6603 12.0037 24.5646C12.003 23.6679 12.0033 22.7713 12.0038 21.8746C12.0043 21.0552 12.0037 20.2357 12.0026 19.4162C12.0014 18.5739 12.001 17.7316 12.0013 16.8892C12.0014 16.4167 12.0013 15.9442 12.0005 15.4716C11.9998 15.0693 11.9998 14.667 12.0006 14.2647C12.001 14.0597 12.0011 13.8546 12.0004 13.6496C11.9997 13.4615 12 13.2734 12.0009 13.0853C12.0011 13.0177 12.0009 12.95 12.0004 12.8823C11.9943 11.9773 12.2867 11.2244 12.9153 10.5706C13.6802 9.88159 14.4904 9.75946 15.4753 9.76009ZM14.3742 12.053C14.3405 12.0826 14.3068 12.1122 14.2721 12.1427C13.9982 12.4892 14.0202 12.8737 14.0224 13.2949C14.0222 13.3623 14.022 13.4296 14.0217 13.497C14.0212 13.6814 14.0214 13.8658 14.0219 14.0502C14.0222 14.2494 14.0217 14.4485 14.0213 14.6476C14.0207 15.0375 14.0208 15.4273 14.0212 15.8172C14.0216 16.134 14.0216 16.4509 14.0214 16.7678C14.0214 16.8129 14.0214 16.858 14.0214 16.9045C14.0213 16.9961 14.0213 17.0878 14.0212 17.1794C14.0208 18.0387 14.0213 18.8979 14.0221 19.7571C14.0227 20.4942 14.0226 21.2313 14.0219 21.9684C14.0212 22.8246 14.0209 23.6808 14.0213 24.537C14.0214 24.6283 14.0214 24.7196 14.0214 24.8109C14.0215 24.8558 14.0215 24.9007 14.0215 24.947C14.0216 25.2635 14.0214 25.5799 14.0211 25.8964C14.0207 26.2821 14.0208 26.6678 14.0216 27.0535C14.0219 27.2502 14.0221 27.447 14.0216 27.6437C14.0212 27.8239 14.0214 28.0041 14.0222 28.1843C14.0223 28.2494 14.0222 28.3145 14.0219 28.3796C14.019 28.944 14.019 28.944 14.2721 29.4359C14.3058 29.4656 14.3395 29.4952 14.3742 29.5257C14.4237 29.5712 14.4237 29.5712 14.4742 29.6176C14.7918 29.8103 15.1668 29.8029 15.5281 29.8012C15.5772 29.8014 15.6262 29.8015 15.6768 29.8017C15.8403 29.8021 16.0039 29.8018 16.1674 29.8015C16.285 29.8016 16.4026 29.8018 16.5202 29.802C16.806 29.8023 17.0917 29.8023 17.3774 29.802C17.6098 29.8018 17.8421 29.8018 18.0744 29.8019C18.1241 29.8019 18.1241 29.8019 18.1748 29.8019C18.2421 29.802 18.3094 29.802 18.3767 29.802C19.0071 29.8023 19.6375 29.802 20.2679 29.8015C20.8083 29.8011 21.3487 29.8011 21.889 29.8016C22.5173 29.8021 23.1455 29.8023 23.7737 29.802C23.8408 29.8019 23.9078 29.8019 23.9749 29.8019C24.0078 29.8019 24.0408 29.8019 24.0748 29.8018C24.3067 29.8018 24.5387 29.8019 24.7706 29.8021C25.083 29.8024 25.3954 29.8022 25.7078 29.8017C25.8224 29.8015 25.937 29.8016 26.0515 29.8018C26.2081 29.802 26.3646 29.8017 26.5212 29.8012C26.5664 29.8015 26.6115 29.8017 26.6581 29.8019C27.0267 29.7997 27.3921 29.7858 27.675 29.5257C27.7256 29.4813 27.7256 29.4813 27.7772 29.4359C28.0089 29.1428 28.0294 28.8356 28.0259 28.477C28.026 28.4311 28.0262 28.3852 28.0263 28.3379C28.0265 28.1849 28.0257 28.0319 28.025 27.8789C28.0249 27.7689 28.025 27.659 28.025 27.549C28.0251 27.2509 28.0243 26.9529 28.0233 26.6548C28.0225 26.3747 28.0223 26.0946 28.0222 25.8145C28.0219 25.26 28.021 24.7054 28.0196 24.1508C28.0183 23.6123 28.0173 23.0737 28.0167 22.5352C28.0167 22.502 28.0167 22.4687 28.0166 22.4345C28.0164 22.2678 28.0163 22.1011 28.0161 21.9344C28.0146 20.5527 28.0121 19.171 28.009 17.7893C27.9664 17.7892 27.9238 17.789 27.88 17.7888C27.4759 17.787 27.0719 17.7844 26.6679 17.7807C26.4602 17.7789 26.2526 17.7774 26.0449 17.7766C25.844 17.7759 25.6431 17.7743 25.4422 17.7721C25.3661 17.7714 25.29 17.771 25.2139 17.771C24.3099 17.77 23.5225 17.5402 22.8528 16.8987C22.2063 16.179 22.0432 15.3947 22.0365 14.4581C22.0356 14.3809 22.0347 14.3038 22.0337 14.2266C22.0313 14.0248 22.0295 13.823 22.0277 13.6211C22.0258 13.4147 22.0234 13.2082 22.0211 13.0018C22.0166 12.5976 22.0126 12.1935 22.009 11.7893C21.1057 11.7871 20.2023 11.7855 19.2989 11.7845C18.8795 11.784 18.46 11.7833 18.0405 11.7823C17.6748 11.7813 17.3091 11.7807 16.9434 11.7805C16.7498 11.7804 16.5563 11.7801 16.3627 11.7794C16.1803 11.7788 15.9979 11.7786 15.8155 11.7787C15.7488 11.7787 15.6821 11.7785 15.6153 11.7782C14.948 11.7587 14.948 11.7587 14.3742 12.053ZM24.0246 12.2581C24.0223 12.6108 24.0206 12.9636 24.0195 13.3164C24.019 13.4363 24.0184 13.5562 24.0176 13.676C24.0164 13.8488 24.0159 14.0216 24.0155 14.1944C24.015 14.2476 24.0145 14.3008 24.014 14.3556C24.0123 14.9422 24.0123 14.9422 24.2883 15.4397C24.3179 15.4734 24.3475 15.5072 24.378 15.5419C24.7155 15.8086 25.0784 15.7927 25.4895 15.7874C25.5776 15.7871 25.5776 15.7871 25.6676 15.7868C25.8226 15.7862 25.9777 15.7849 26.1327 15.7834C26.2914 15.7819 26.4501 15.7813 26.6088 15.7806C26.9193 15.779 27.2298 15.7767 27.5403 15.7737C27.3475 15.544 27.1475 15.3273 26.9352 15.1157C26.9042 15.0846 26.8731 15.0535 26.8411 15.0214C26.7395 14.9196 26.6377 14.8179 26.5359 14.7163C26.465 14.6453 26.394 14.5743 26.3231 14.5033C26.175 14.3551 26.0268 14.207 25.8785 14.059C25.6881 13.8688 25.4978 13.6784 25.3076 13.4879C25.1614 13.3415 25.0152 13.1953 24.8688 13.0491C24.7986 12.9789 24.7284 12.9087 24.6582 12.8384C24.5606 12.7406 24.4628 12.643 24.365 12.5455C24.3358 12.5162 24.3066 12.4869 24.2765 12.4567C24.1679 12.3216 24.1679 12.3216 24.0246 12.2581Z" fill="#2574ED"/>
<path d="M21.5625 20.1094C21.9599 20.4288 22.3148 20.8064 22.6755 21.1659C22.7053 21.1956 22.7352 21.2253 22.7659 21.2559C22.9234 21.4127 23.0807 21.5696 23.238 21.7266C23.3997 21.8881 23.5618 22.0491 23.724 22.21C23.8496 22.3347 23.9748 22.4596 24.0999 22.5847C24.1596 22.6442 24.2193 22.7036 24.2792 22.7629C24.3629 22.8457 24.4461 22.929 24.5292 23.0124C24.5536 23.0364 24.5781 23.0605 24.6033 23.0852C24.8633 23.3482 25.0182 23.6158 25.043 23.9883C25.0384 24.3003 24.9243 24.5757 24.7032 24.7969C24.4145 24.9965 24.162 25.0639 23.8125 25.0312C23.2643 24.8986 22.891 24.3922 22.5068 24.0073C22.4449 23.9453 22.4449 23.9453 22.3817 23.8821C22.2805 23.7808 22.1793 23.6795 22.0782 23.5781C22.0778 23.6447 22.0778 23.6447 22.0773 23.7126C22.0746 24.1319 22.0712 24.5512 22.0671 24.9705C22.065 25.186 22.0632 25.4016 22.0619 25.6171C22.0607 25.8253 22.0588 26.0335 22.0565 26.2417C22.0557 26.3209 22.0551 26.4002 22.0548 26.4794C22.0544 26.5908 22.0531 26.7022 22.0516 26.8136C22.0517 26.8622 22.0517 26.8622 22.0518 26.9118C22.0461 27.2112 21.975 27.4622 21.7823 27.6914C21.4916 27.9348 21.294 28.0472 20.9134 28.0415C20.6391 28.0136 20.3977 27.8977 20.2032 27.7031C20.004 27.4151 19.962 27.178 19.9592 26.8349C19.9587 26.7996 19.9582 26.7644 19.9578 26.7281C19.9563 26.6119 19.9551 26.4958 19.954 26.3796C19.953 26.299 19.952 26.2183 19.951 26.1377C19.9484 25.9256 19.9461 25.7135 19.9438 25.5014C19.9415 25.2849 19.9389 25.0685 19.9363 24.852C19.9313 24.4274 19.9265 24.0027 19.9219 23.5781C19.8867 23.614 19.8515 23.65 19.8152 23.687C19.6836 23.8212 19.5515 23.9549 19.4192 24.0885C19.3622 24.1462 19.3054 24.204 19.2486 24.262C19.1667 24.3457 19.0843 24.4288 19.0018 24.5119C18.9768 24.5376 18.9519 24.5633 18.9262 24.5898C18.6593 24.8568 18.3927 25.0176 18.0118 25.043C17.6998 25.0383 17.4243 24.9243 17.2032 24.7031C17.0036 24.4145 16.9361 24.1619 16.9688 23.8125C17.1137 23.2135 17.7425 22.7492 18.1659 22.3246C18.1956 22.2947 18.2254 22.2649 18.256 22.2341C18.4128 22.0766 18.5697 21.9193 18.7267 21.7621C18.8881 21.6004 19.0491 21.4382 19.21 21.276C19.3347 21.1505 19.4597 21.0252 19.5848 20.9001C19.6443 20.8404 19.7037 20.7807 19.7629 20.7208C19.8458 20.6371 19.9291 20.5539 20.0125 20.4708C20.0365 20.4464 20.0605 20.4219 20.0853 20.3967C20.4929 19.9937 21.0315 19.8029 21.5625 20.1094Z" fill="#2574ED"/>
</svg>
