<?xml version="1.0" standalone="no"?><!DOCTYPE svg PUBLIC "-//W3C//DTD SVG 1.1//EN" "http://www.w3.org/Graphics/SVG/1.1/DTD/svg11.dtd"><svg t="1734060634769" class="icon" viewBox="0 0 1024 1024" version="1.1" xmlns="http://www.w3.org/2000/svg" p-id="5089" xmlns:xlink="http://www.w3.org/1999/xlink" width="200" height="200"><path d="M761.623273 636.788364c-12.846545 32.023273-35.234909 60.788364-57.623273 86.388363-25.6 25.6-54.411636 44.823273-86.388364 57.623273-32.023273 12.8-67.211636 22.388364-105.611636 22.388364-38.4 0-73.588364-6.376727-105.611636-22.388364a406.574545 406.574545 0 0 1-86.388364-57.623273 255.720727 255.720727 0 0 1-57.576727-86.388363c-12.846545-31.976727-22.434909-67.211636-22.434909-105.611637 0-22.341818 3.211636-44.776727 6.423272-64 6.376727-22.341818 12.8-41.565091 22.388364-60.788363 9.588364-19.176727 22.388364-35.188364 35.188364-54.411637A215.365818 215.365818 0 0 1 352.023273 307.2c9.588364-6.423273 19.176727-9.588364 28.765091-6.423273 9.634909 3.258182 19.223273 6.423273 25.6 16.011637 6.423273 9.588364 9.634909 19.223273 6.423272 28.811636-3.211636 9.588364-6.423273 19.176727-16.011636 25.6-25.6 19.176727-47.988364 41.611636-60.788364 70.376727-12.8 28.858182-22.434909 57.623273-22.434909 89.6 0 25.6 6.423273 51.2 16.011637 76.8 9.588364 25.6 25.6 44.823273 41.611636 60.834909a187.578182 187.578182 0 0 0 60.788364 41.565091 193.349818 193.349818 0 0 0 76.8 16.011637c25.6 0 51.2-6.376727 76.8-16.011637 25.6-9.588364 44.823273-25.6 60.788363-41.565091a187.578182 187.578182 0 0 0 41.611637-60.834909 193.349818 193.349818 0 0 0 16.011636-76.8c0-31.976727-6.376727-60.788364-19.176727-86.388363-12.8-25.6-32.023273-51.2-57.623273-67.211637-9.588364-6.376727-12.8-15.965091-16.011636-25.6-3.211636-9.588364 0-19.176727 6.423272-28.765091 6.376727-9.634909 16.011636-12.8 25.6-16.011636 9.588364-3.211636 19.176727 0 28.765091 6.376727 16.011636 12.8 32.023273 28.858182 44.823273 44.823273 12.8 16.011636 25.6 35.188364 35.188364 51.2 9.634909 19.176727 16.011636 38.4 22.434909 57.576727 6.376727 19.223273 6.376727 41.611636 6.376727 64 3.211636 38.4-3.211636 73.634909-19.176727 105.658182z m-288.023273-371.2c0-9.588364 3.211636-19.176727 12.8-28.811637a40.541091 40.541091 0 0 1 28.811636-12.8c9.588364 0 19.176727 3.258182 25.6 12.8a40.541091 40.541091 0 0 1 12.8 28.858182v230.4c0 9.541818-3.211636 19.176727-12.8 25.6-6.423273 6.376727-16.011636 12.753455-25.6 12.753455-9.634909 0-19.223273-3.211636-28.811636-12.8-6.376727-6.376727-12.8-16.011636-12.8-25.6v-230.4zM512 0C230.4 0 0 230.4 0 512s230.4 512 512 512 512-230.4 512-512S793.6 0 512 0z" fill="#E94E70" p-id="5090"></path></svg>