<svg width="52" height="52" viewBox="0 0 52 52" fill="none" xmlns="http://www.w3.org/2000/svg">
<rect width="52" height="52" rx="26" fill="url(#paint0_linear_534_1344)"/>
<g filter="url(#filter0_d_534_1344)">
<path fill-rule="evenodd" clip-rule="evenodd" d="M14.0292 12.6015L13.2011 12.5995C12.9659 12.6003 12.7465 12.5902 12.5442 12.5809C11.5733 12.5362 10.9944 12.5095 10.9299 13.8013L10.9291 14.9218C10.9275 15.5703 10.926 16.2188 10.9268 16.8674C10.9276 17.3321 10.9279 17.7969 10.9276 18.2617C10.9268 19.2275 10.9264 20.1933 10.9276 21.1591C10.9296 22.4193 10.9306 23.6795 10.9288 24.9397C10.9272 25.9208 10.9265 26.9018 10.927 27.8829L10.928 29.2855L10.926 30.6633L10.9291 31.9286C10.9296 32.5792 10.9389 33.2301 10.9714 33.8799C11.06 33.9686 11.1271 34.0357 11.2048 34.0865C11.4461 34.2444 11.7898 34.2456 13.2011 34.2509L14.0292 34.2489C14.9422 34.2507 15.8551 34.252 16.7681 34.2511C17.4226 34.2504 18.077 34.2501 18.7315 34.2503C20.0908 34.2512 21.4501 34.2516 22.8094 34.2504C24.5838 34.2484 26.3582 34.2474 28.1326 34.2492C29.5136 34.2507 30.8945 34.2514 32.2755 34.251L34.2495 34.25C35.2007 34.2511 36.152 34.2521 37.1033 34.2506L37.9709 34.2489C38.8841 34.2511 39.789 34.2395 40.702 34.2066C41.0287 33.8799 41.0287 33.8799 41.0702 33.049L41.071 31.9286C41.0726 31.2801 41.0741 30.6315 41.0732 29.983C41.0725 29.5182 41.0722 29.0534 41.0724 28.5886C41.0733 27.6228 41.0736 26.657 41.0725 25.6912C41.0705 24.431 41.0694 23.1708 41.0713 21.9106C41.0728 20.9296 41.0735 19.9485 41.073 18.9674L41.0721 17.5648L41.0741 16.1871L41.071 14.9218C41.0705 14.2712 41.0612 13.6202 41.0287 12.9704C40.94 12.8818 40.873 12.8147 40.7953 12.7639C40.554 12.606 40.2102 12.6047 38.799 12.5995L37.9709 12.6015C37.0579 12.5996 36.1449 12.5984 35.232 12.5992C34.5775 12.6 33.923 12.6002 33.2686 12.6C31.9093 12.5992 30.55 12.5988 29.1907 12.6C27.4163 12.6019 25.6419 12.603 23.8675 12.6011C22.4865 12.5996 21.1056 12.5989 19.7246 12.5994L17.7506 12.6003C16.7993 12.5992 15.8481 12.5983 14.8968 12.5997L14.0292 12.6015ZM12.2782 28.9793V13.9506H39.7219V28.9793H12.2782ZM36.4548 32.2464V30.9395H37.7616V32.2464H36.4548ZM29.9207 35.5134H22.0797V36.8203L21.388 36.7973L20.487 36.7794C20.0084 36.7672 19.7854 36.7615 19.5629 36.7685C19.3689 36.7747 19.1752 36.7906 18.8126 36.8203C18.5896 37.0433 18.4427 37.1901 18.346 37.3648C18.1592 37.702 18.1592 38.1426 18.1592 39.434H33.8413V37.4737C33.49 37.1225 33.3276 36.9601 33.1316 36.875C32.9629 36.8018 32.7694 36.786 32.4093 36.7565L31.5134 36.7794L30.6124 36.7973L29.9207 36.8203V35.5134Z" fill="white"/>
</g>
<defs>
<filter id="filter0_d_534_1344" x="9.25754" y="10.8976" width="36.8219" height="33.5416" filterUnits="userSpaceOnUse" color-interpolation-filters="sRGB">
<feFlood flood-opacity="0" result="BackgroundImageFix"/>
<feColorMatrix in="SourceAlpha" type="matrix" values="0 0 0 0 0 0 0 0 0 0 0 0 0 0 0 0 0 0 127 0" result="hardAlpha"/>
<feOffset dx="1.66843" dy="1.66843"/>
<feGaussianBlur stdDeviation="1.66843"/>
<feComposite in2="hardAlpha" operator="out"/>
<feColorMatrix type="matrix" values="0 0 0 0 0 0 0 0 0 0 0 0 0 0 0 0 0 0 0.25 0"/>
<feBlend mode="normal" in2="BackgroundImageFix" result="effect1_dropShadow_534_1344"/>
<feBlend mode="normal" in="SourceGraphic" in2="effect1_dropShadow_534_1344" result="shape"/>
</filter>
<linearGradient id="paint0_linear_534_1344" x1="0" y1="0" x2="0" y2="52" gradientUnits="userSpaceOnUse">
<stop stop-color="#9D82FF"/>
<stop offset="1" stop-color="#5856D6"/>
</linearGradient>
</defs>
</svg>
