<svg width="50" height="32" viewBox="0 0 50 32" fill="none" xmlns="http://www.w3.org/2000/svg">
<path fill-rule="evenodd" clip-rule="evenodd" d="M12.1646 31.69H12.1645C10.6518 31.686 9.13896 31.6819 7.626 31.7041C6.91284 31.7147 6.08603 31.7174 5.55353 31.4866C4.70804 31.1198 3.83665 30.6929 3.05818 30.1425C-0.093379 27.9151 -0.685717 23.8899 0.716447 20.697C1.69025 18.4791 3.53774 17.358 5.88523 16.8128C6.3251 16.7109 6.44592 16.512 6.47297 16.1255C6.71376 12.6897 9.53218 10.1468 13.1722 10.0984C13.7502 10.0904 13.9694 9.9588 14.0545 9.36402C14.8575 3.67936 20.0988 0.087826 25.8783 1.16059C27.8797 1.53249 29.5324 2.46294 30.9559 3.79214C31.9124 4.68499 31.7858 5.63288 30.6981 6.37937C29.4121 7.2626 28.1305 8.15194 26.8489 9.04127L26.8486 9.04152C25.4437 10.0164 24.039 10.9912 22.6283 11.958C20.1016 13.69 17.5651 15.4073 15.0154 17.1082C14.4118 17.511 14.163 17.9971 14.1685 18.6885C14.1846 20.459 14.183 22.2295 14.1815 23.9999C14.1811 24.4186 14.1808 24.8372 14.1807 25.2558C13.3614 25.9076 13.1289 27.19 13.9352 28.0929C14.7112 28.9619 16.0709 28.9619 16.847 28.0929C17.551 27.3045 17.463 26.2267 16.8839 25.5321C16.8855 25.0379 16.8843 24.5436 16.8831 24.0494V24.0493C16.8821 23.6162 16.8811 23.1831 16.8819 22.7501C16.8822 22.5025 16.8862 22.2547 16.8902 22.0067V22.0067C16.8994 21.4274 16.9087 20.8478 16.8718 20.2715C16.8192 19.4417 17.1837 18.8659 17.8683 18.3999C20.6341 16.5215 23.397 14.6392 26.1559 12.7528C26.8079 12.3071 27.4615 11.8632 28.1152 11.4192C30.0131 10.1302 31.9117 8.84072 33.7731 7.50448C35.0214 6.60897 36.3439 6.75932 37.6977 6.9755C41.8173 7.63069 44.714 11.292 44.9191 14.564C44.9674 15.3333 44.9162 16.0745 44.7966 16.821C44.7382 17.1874 44.8178 17.4185 45.1953 17.5634C46.098 17.9088 46.9228 18.5393 47.6289 19.0791C47.7768 19.1922 47.9195 19.3013 48.0566 19.4029C48.3762 19.6397 48.808 20.2045 49.0016 20.4944C50.5134 22.7661 50.1391 24.9585 49.0016 27.3927C48.2044 29.0993 46.7283 30.1868 44.993 31.0352C43.9255 31.5576 42.8265 31.6905 41.6677 31.6851C41.0082 31.6826 40.3484 31.6839 39.6885 31.6852H39.6884C38.927 31.6866 38.1655 31.6881 37.4043 31.6838C36.3594 31.6772 35.8939 31.3092 35.7162 30.3265C35.6043 29.7078 35.6223 29.0826 35.6403 28.4584C35.6462 28.256 35.652 28.0538 35.6534 27.8519C35.6747 24.8931 35.7102 21.9343 35.7626 18.9753C36.4027 18.2703 36.5233 17.1297 35.7889 16.2968L35.7344 16.235C34.9381 15.332 33.5304 15.332 32.7341 16.235L32.6796 16.2968C32.1011 16.9529 32.0531 17.7999 32.3717 18.4745L32.2467 18.4195C31.8546 18.2467 31.4675 18.0761 31.9993 18.4414C32.6328 18.8765 32.9544 19.4257 32.9489 20.2018C32.9309 22.3303 32.9344 24.4594 32.9378 26.5882C32.9395 27.6526 32.9413 28.717 32.9403 29.7813C32.9389 31.2153 32.4078 31.7 30.8805 31.6919C30.6698 31.6907 30.4592 31.6906 30.2486 31.6904H30.2486C29.9854 31.6903 29.7224 31.6901 29.4599 31.6878C28.3253 31.6783 27.7045 31.128 27.6904 30.0471C27.6754 28.9289 27.6783 27.8105 27.6812 26.6922V26.6922L27.6812 26.6909C27.6827 26.1125 27.6842 25.5342 27.6832 24.9558C27.6803 23.5825 27.1766 23.1098 25.716 23.1057C25.5442 23.1057 25.3723 23.105 25.2005 23.1043C24.756 23.1024 24.3118 23.1005 23.8683 23.1111C22.8732 23.1366 22.2883 23.6899 22.2825 24.6257C22.277 25.5808 22.278 26.5355 22.2791 27.4903V27.4912C22.2799 28.2553 22.2808 29.0195 22.2782 29.784C22.2725 31.1722 21.7273 31.6878 20.2783 31.6892C18.8728 31.6901 17.4673 31.6898 16.0617 31.6895H16.0617C15.359 31.6893 14.6563 31.6892 13.9536 31.6892L13.9507 31.6932C13.3553 31.6932 12.7599 31.6916 12.1646 31.69Z" fill="white"/>
</svg>
