<?xml version="1.0" standalone="no"?><!DOCTYPE svg PUBLIC "-//W3C//DTD SVG 1.1//EN" "http://www.w3.org/Graphics/SVG/1.1/DTD/svg11.dtd"><svg t="1732775717685" class="icon" viewBox="0 0 1024 1024" version="1.1" xmlns="http://www.w3.org/2000/svg" p-id="13483" xmlns:xlink="http://www.w3.org/1999/xlink" width="200" height="200"><path d="M512 1024c282.766222 0 512-229.233778 512-512S794.766222 0 512 0 0 229.233778 0 512s229.233778 512 512 512z m-80.924444-425.898667l283.107555-283.107555a57.656889 57.656889 0 0 1 81.720889 0.142222c22.613333 22.613333 22.613333 59.278222 0.170667 81.749333L475.392 717.568a57.429333 57.429333 0 0 1-38.229333 16.839111 56.746667 56.746667 0 0 1-46.734223-16.071111L227.84 555.747556a56.661333 56.661333 0 0 1 0.142222-80.327112 57.059556 57.059556 0 0 1 80.327111-0.142222l122.794667 122.823111z" fill="#FF5500" p-id="13484"></path></svg>