<svg width="131" height="17" viewBox="0 0 131 17" fill="none" xmlns="http://www.w3.org/2000/svg">
<path d="M12.936 3.424C12.936 3.776 12.84 4.096 12.648 4.384C12.456 4.656 12.24 4.864 12 5.008C11.6 4.736 11.144 4.496 10.632 4.288C10.136 4.08 9.544 3.976 8.856 3.976C7.992 3.976 7.248 4.16 6.624 4.528C6.016 4.896 5.544 5.44 5.208 6.16C4.872 6.864 4.704 7.72 4.704 8.728C4.704 10.28 5.088 11.456 5.856 12.256C6.64 13.056 7.696 13.456 9.024 13.456C9.728 13.456 10.328 13.36 10.824 13.168C11.32 12.976 11.776 12.752 12.192 12.496C12.432 12.672 12.624 12.904 12.768 13.192C12.928 13.464 13.008 13.784 13.008 14.152C13.008 14.472 12.92 14.768 12.744 15.04C12.584 15.296 12.304 15.52 11.904 15.712C11.6 15.872 11.168 16.024 10.608 16.168C10.064 16.328 9.384 16.408 8.568 16.408C7.16 16.408 5.88 16.136 4.728 15.592C3.576 15.032 2.656 14.184 1.968 13.048C1.296 11.912 0.96 10.472 0.96 8.728C0.96 7.064 1.288 5.664 1.944 4.528C2.616 3.376 3.512 2.504 4.632 1.912C5.768 1.32 7.008 1.024 8.352 1.024C9.296 1.024 10.112 1.136 10.8 1.36C11.488 1.568 12.016 1.856 12.384 2.224C12.752 2.576 12.936 2.976 12.936 3.424ZM18.5606 10.576H15.0326V7.144C15.0326 6.696 15.1366 6.32 15.3446 6.016C15.5686 5.696 15.8726 5.416 16.2566 5.176C16.7846 4.856 17.4166 4.608 18.1526 4.432C18.9046 4.24 19.6886 4.144 20.5046 4.144C22.1366 4.144 22.9526 4.688 22.9526 5.776C22.9526 6.032 22.9126 6.272 22.8326 6.496C22.7686 6.704 22.6806 6.888 22.5686 7.048C22.4086 7.016 22.2086 6.992 21.9686 6.976C21.7446 6.96 21.5046 6.952 21.2486 6.952C20.7526 6.952 20.2646 7.008 19.7846 7.12C19.3206 7.216 18.9126 7.368 18.5606 7.576V10.576ZM18.5606 9.736V15.976C18.4166 16.008 18.2006 16.048 17.9126 16.096C17.6246 16.144 17.3126 16.168 16.9766 16.168C16.3046 16.168 15.8086 16.048 15.4886 15.808C15.1846 15.568 15.0326 15.136 15.0326 14.512V9.664L18.5606 9.736ZM35.9533 10.24C35.9533 11.488 35.7053 12.576 35.2093 13.504C34.7133 14.416 34.0093 15.12 33.0973 15.616C32.1853 16.112 31.1133 16.36 29.8813 16.36C28.6493 16.36 27.5773 16.12 26.6653 15.64C25.7533 15.144 25.0493 14.44 24.5533 13.528C24.0573 12.6 23.8093 11.504 23.8093 10.24C23.8093 8.992 24.0573 7.912 24.5533 7C25.0653 6.088 25.7773 5.384 26.6893 4.888C27.6173 4.376 28.6813 4.12 29.8813 4.12C31.0973 4.12 32.1613 4.376 33.0733 4.888C33.9853 5.384 34.6893 6.096 35.1853 7.024C35.6973 7.936 35.9533 9.008 35.9533 10.24ZM29.8813 6.928C29.1293 6.928 28.5293 7.216 28.0813 7.792C27.6493 8.368 27.4333 9.184 27.4333 10.24C27.4333 11.312 27.6493 12.136 28.0813 12.712C28.5133 13.288 29.1133 13.576 29.8813 13.576C30.6653 13.576 31.2653 13.288 31.6813 12.712C32.1133 12.12 32.3293 11.296 32.3293 10.24C32.3293 9.2 32.1133 8.392 31.6813 7.816C31.2493 7.224 30.6493 6.928 29.8813 6.928ZM47.5483 12.64C47.5483 13.808 47.1083 14.728 46.2283 15.4C45.3483 16.056 44.0683 16.384 42.3883 16.384C41.0763 16.384 39.9963 16.192 39.1483 15.808C38.3003 15.408 37.8763 14.84 37.8763 14.104C37.8763 13.768 37.9483 13.48 38.0923 13.24C38.2363 12.984 38.4203 12.784 38.6443 12.64C39.0923 12.912 39.6123 13.152 40.2043 13.36C40.8123 13.568 41.5003 13.672 42.2683 13.672C43.4523 13.672 44.0443 13.336 44.0443 12.664C44.0443 12.376 43.9323 12.152 43.7083 11.992C43.5003 11.816 43.1643 11.68 42.7003 11.584L41.6443 11.344C40.3803 11.088 39.4283 10.68 38.7883 10.12C38.1643 9.544 37.8523 8.76 37.8523 7.768C37.8523 6.648 38.3003 5.76 39.1963 5.104C40.1083 4.448 41.3323 4.12 42.8683 4.12C43.6363 4.12 44.3323 4.2 44.9563 4.36C45.5803 4.504 46.0763 4.728 46.4443 5.032C46.8123 5.336 46.9963 5.72 46.9963 6.184C46.9963 6.488 46.9323 6.768 46.8043 7.024C46.6763 7.264 46.5163 7.456 46.3243 7.6C46.1323 7.488 45.8603 7.376 45.5083 7.264C45.1563 7.136 44.7643 7.032 44.3323 6.952C43.9163 6.856 43.5243 6.808 43.1563 6.808C42.5803 6.808 42.1243 6.888 41.7883 7.048C41.4683 7.208 41.3083 7.448 41.3083 7.768C41.3083 7.976 41.3963 8.16 41.5723 8.32C41.7643 8.464 42.1003 8.592 42.5803 8.704L43.5403 8.92C44.9643 9.256 45.9883 9.728 46.6123 10.336C47.2363 10.928 47.5483 11.696 47.5483 12.64ZM59.103 12.64C59.103 13.808 58.663 14.728 57.783 15.4C56.903 16.056 55.623 16.384 53.943 16.384C52.631 16.384 51.551 16.192 50.703 15.808C49.855 15.408 49.431 14.84 49.431 14.104C49.431 13.768 49.503 13.48 49.647 13.24C49.791 12.984 49.975 12.784 50.199 12.64C50.647 12.912 51.167 13.152 51.759 13.36C52.367 13.568 53.055 13.672 53.823 13.672C55.007 13.672 55.599 13.336 55.599 12.664C55.599 12.376 55.487 12.152 55.263 11.992C55.055 11.816 54.719 11.68 54.255 11.584L53.199 11.344C51.935 11.088 50.983 10.68 50.343 10.12C49.719 9.544 49.407 8.76 49.407 7.768C49.407 6.648 49.855 5.76 50.751 5.104C51.663 4.448 52.887 4.12 54.423 4.12C55.191 4.12 55.887 4.2 56.511 4.36C57.135 4.504 57.631 4.728 57.999 5.032C58.367 5.336 58.551 5.72 58.551 6.184C58.551 6.488 58.487 6.768 58.359 7.024C58.231 7.264 58.071 7.456 57.879 7.6C57.687 7.488 57.415 7.376 57.063 7.264C56.711 7.136 56.319 7.032 55.887 6.952C55.471 6.856 55.079 6.808 54.711 6.808C54.135 6.808 53.679 6.888 53.343 7.048C53.023 7.208 52.863 7.448 52.863 7.768C52.863 7.976 52.951 8.16 53.127 8.32C53.319 8.464 53.655 8.592 54.135 8.704L55.095 8.92C56.519 9.256 57.543 9.728 58.167 10.336C58.791 10.928 59.103 11.696 59.103 12.64ZM75.6111 13.432C76.4591 13.432 77.0671 13.28 77.4351 12.976C77.8191 12.656 78.0111 12.28 78.0111 11.848C78.0111 11.448 77.8591 11.128 77.5551 10.888C77.2671 10.632 76.8351 10.408 76.2591 10.216L74.9871 9.808C74.1231 9.52 73.3631 9.2 72.7071 8.848C72.0511 8.496 71.5391 8.048 71.1711 7.504C70.8031 6.944 70.6191 6.232 70.6191 5.368C70.6191 4.04 71.1231 2.984 72.1311 2.2C73.1391 1.416 74.5391 1.024 76.3311 1.024C77.2431 1.024 78.0511 1.112 78.7551 1.288C79.4751 1.464 80.0351 1.728 80.4351 2.08C80.8511 2.416 81.0591 2.832 81.0591 3.328C81.0591 3.68 80.9711 3.992 80.7951 4.264C80.6191 4.536 80.4111 4.76 80.1711 4.936C79.8031 4.696 79.3071 4.48 78.6831 4.288C78.0751 4.096 77.4111 4 76.6911 4C75.9231 4 75.3391 4.128 74.9391 4.384C74.5551 4.64 74.3631 4.968 74.3631 5.368C74.3631 5.688 74.4911 5.952 74.7471 6.16C75.0191 6.352 75.4111 6.528 75.9231 6.688L77.2431 7.12C78.6991 7.568 79.8191 8.16 80.6031 8.896C81.3871 9.632 81.7791 10.624 81.7791 11.872C81.7791 13.216 81.2591 14.312 80.2191 15.16C79.1791 15.992 77.6751 16.408 75.7071 16.408C74.7311 16.408 73.8591 16.296 73.0911 16.072C72.3231 15.864 71.7151 15.568 71.2671 15.184C70.8191 14.784 70.5951 14.32 70.5951 13.792C70.5951 13.376 70.7151 13.024 70.9551 12.736C71.1951 12.448 71.4671 12.224 71.7711 12.064C72.2031 12.416 72.7391 12.736 73.3791 13.024C74.0351 13.296 74.7791 13.432 75.6111 13.432ZM91.4978 11.104V8.968C91.4978 8.232 91.3058 7.712 90.9218 7.408C90.5378 7.088 90.0578 6.928 89.4818 6.928C88.9698 6.928 88.5058 7.024 88.0898 7.216C87.6898 7.408 87.3378 7.624 87.0338 7.864L86.9618 5.008C87.3298 4.784 87.7858 4.584 88.3298 4.408C88.8738 4.216 89.4738 4.12 90.1298 4.12C91.6338 4.12 92.8258 4.512 93.7058 5.296C94.5858 6.064 95.0258 7.224 95.0258 8.776V11.104H91.4978ZM87.5618 9.664V15.976C87.4178 16.008 87.2018 16.048 86.9138 16.096C86.6258 16.144 86.3138 16.168 85.9778 16.168C85.3058 16.168 84.8098 16.048 84.4898 15.808C84.1858 15.568 84.0338 15.136 84.0338 14.512V9.664H87.5618ZM95.0258 9.664V15.976C94.8818 16.008 94.6658 16.048 94.3778 16.096C94.0898 16.144 93.7778 16.168 93.4418 16.168C92.7698 16.168 92.2738 16.048 91.9538 15.808C91.6498 15.568 91.4978 15.136 91.4978 14.512V9.664H95.0258ZM84.0338 11.488V0.375999C84.1778 0.327999 84.3938 0.279999 84.6818 0.232C84.9698 0.184 85.2818 0.159999 85.6178 0.159999C86.3058 0.159999 86.8018 0.279999 87.1058 0.519999C87.4098 0.743999 87.5618 1.176 87.5618 1.816V11.488H84.0338ZM102.565 13.744C102.933 13.744 103.293 13.704 103.645 13.624C104.013 13.544 104.277 13.456 104.437 13.36V11.056L102.397 11.224C101.853 11.272 101.421 11.392 101.101 11.584C100.797 11.776 100.645 12.064 100.645 12.448C100.645 12.848 100.797 13.168 101.101 13.408C101.405 13.632 101.893 13.744 102.565 13.744ZM102.421 4.12C104.069 4.12 105.389 4.472 106.381 5.176C107.373 5.864 107.869 6.936 107.869 8.392V13.84C107.869 14.24 107.765 14.568 107.557 14.824C107.349 15.064 107.093 15.272 106.789 15.448C106.309 15.736 105.709 15.96 104.989 16.12C104.285 16.28 103.477 16.36 102.565 16.36C100.933 16.36 99.6293 16.048 98.6533 15.424C97.6933 14.784 97.2133 13.832 97.2133 12.568C97.2133 11.48 97.5493 10.648 98.2213 10.072C98.8933 9.48 99.8933 9.12 101.221 8.992L104.437 8.656V8.368C104.437 7.808 104.221 7.408 103.789 7.168C103.357 6.928 102.757 6.808 101.989 6.808C101.381 6.808 100.781 6.88 100.189 7.024C99.5973 7.168 99.0693 7.344 98.6053 7.552C98.4133 7.408 98.2533 7.208 98.1253 6.952C97.9973 6.696 97.9333 6.424 97.9333 6.136C97.9333 5.464 98.2933 4.976 99.0133 4.672C99.4773 4.496 100.013 4.36 100.621 4.264C101.245 4.168 101.845 4.12 102.421 4.12ZM114.162 10.576H110.634V7.144C110.634 6.696 110.738 6.32 110.946 6.016C111.17 5.696 111.474 5.416 111.858 5.176C112.386 4.856 113.018 4.608 113.754 4.432C114.506 4.24 115.29 4.144 116.106 4.144C117.738 4.144 118.554 4.688 118.554 5.776C118.554 6.032 118.514 6.272 118.434 6.496C118.37 6.704 118.282 6.888 118.17 7.048C118.01 7.016 117.81 6.992 117.57 6.976C117.346 6.96 117.106 6.952 116.85 6.952C116.354 6.952 115.866 7.008 115.386 7.12C114.922 7.216 114.514 7.368 114.162 7.576V10.576ZM114.162 9.736V15.976C114.018 16.008 113.802 16.048 113.514 16.096C113.226 16.144 112.914 16.168 112.578 16.168C111.906 16.168 111.41 16.048 111.09 15.808C110.786 15.568 110.634 15.136 110.634 14.512V9.664L114.162 9.736ZM121.451 9.52L127.427 8.584C127.379 8.12 127.179 7.704 126.827 7.336C126.475 6.952 125.955 6.76 125.267 6.76C124.531 6.76 123.923 7.008 123.443 7.504C122.963 7.984 122.715 8.68 122.699 9.592L122.795 11.224C122.955 12.104 123.339 12.736 123.947 13.12C124.555 13.488 125.275 13.672 126.107 13.672C126.779 13.672 127.411 13.584 128.003 13.408C128.595 13.216 129.075 13.008 129.443 12.784C129.667 12.928 129.859 13.128 130.019 13.384C130.179 13.64 130.259 13.912 130.259 14.2C130.259 14.68 130.067 15.08 129.683 15.4C129.315 15.72 128.795 15.96 128.123 16.12C127.467 16.28 126.715 16.36 125.867 16.36C124.635 16.36 123.531 16.128 122.555 15.664C121.579 15.2 120.811 14.504 120.251 13.576C119.691 12.648 119.411 11.488 119.411 10.096C119.411 9.072 119.571 8.184 119.891 7.432C120.211 6.68 120.643 6.064 121.187 5.584C121.747 5.088 122.371 4.72 123.059 4.48C123.763 4.24 124.491 4.12 125.243 4.12C126.347 4.12 127.307 4.344 128.123 4.792C128.955 5.224 129.603 5.816 130.067 6.568C130.531 7.32 130.763 8.192 130.763 9.184C130.763 9.68 130.627 10.056 130.355 10.312C130.083 10.552 129.707 10.712 129.227 10.792L121.595 11.92L121.451 9.52Z" fill="white"/>
</svg>
