<svg width="66" height="66" viewBox="0 0 66 66" fill="none" xmlns="http://www.w3.org/2000/svg">
<path d="M33 41.25L38.5 35.75L36.575 33.825L34.375 36.025V30.25H31.625V36.025L29.425 33.825L27.5 35.75L33 41.25ZM23.375 27.5V42.625H42.625V27.5H23.375ZM23.375 45.375C22.6188 45.375 21.9656 45.1115 21.4156 44.5844C20.8885 44.0344 20.625 43.3813 20.625 42.625V25.4719C20.625 25.151 20.6708 24.8417 20.7625 24.5438C20.8771 24.2458 21.0375 23.9708 21.2438 23.7188L22.9625 21.6219C23.2146 21.301 23.524 21.0604 23.8906 20.9C24.2802 20.7167 24.6813 20.625 25.0938 20.625H40.9063C41.3188 20.625 41.7083 20.7167 42.075 20.9C42.4646 21.0604 42.7854 21.301 43.0375 21.6219L44.7563 23.7188C44.9625 23.9708 45.1115 24.2458 45.2031 24.5438C45.3177 24.8417 45.375 25.151 45.375 25.4719V42.625C45.375 43.3813 45.1 44.0344 44.55 44.5844C44.0229 45.1115 43.3813 45.375 42.625 45.375H23.375ZM23.925 24.75H42.075L40.9063 23.375H25.0938L23.925 24.75Z" fill="white"/>
</svg>
