<?xml version="1.0" standalone="no"?><!DOCTYPE svg PUBLIC "-//W3C//DTD SVG 1.1//EN" "http://www.w3.org/Graphics/SVG/1.1/DTD/svg11.dtd"><svg t="1745547618303" class="icon" viewBox="0 0 1024 1024" version="1.1" xmlns="http://www.w3.org/2000/svg" p-id="4757" xmlns:xlink="http://www.w3.org/1999/xlink" width="200" height="200"><path d="M516.697248 7.226535c-278.221595-0.722653-508.748059 227.63585-510.193367 505.134792-1.445307 273.16302 224.022583 502.966831 497.185604 505.857445 282.557516 2.890614 511.638673-219.686662 513.806634-498.63091 2.16796-280.389555-224.022583-511.638673-500.798871-512.361327z m201.620324 644.606916c18.066337 18.066337 18.066337 47.695131 0 66.484121-18.066337 18.066337-47.695131 18.066337-66.484121 0l-139.472124-139.472124-139.472124 139.472124c-18.066337 18.066337-47.695131 18.066337-66.484122 0-18.066337-18.066337-18.066337-47.695131 0-66.484121l139.472124-139.472124-139.472124-139.472124c-18.066337-18.066337-18.066337-47.695131 0-66.484122s47.695131-18.066337 66.484122 0l139.472124 139.472124 139.472124-139.472124c18.066337-18.066337 47.695131-18.066337 66.484121 0s18.066337 47.695131 0 66.484122l-139.472124 139.472124 139.472124 139.472124z" fill="#F66156" p-id="4758"></path></svg>