<svg width="120" height="120" viewBox="0 0 120 120" fill="none" xmlns="http://www.w3.org/2000/svg">
<rect width="120" height="120" rx="26.6667" fill="url(#paint0_linear_179_2489)"/>
<g clip-path="url(#clip0_179_2489)">
<g filter="url(#filter0_d_179_2489)">
<path d="M24.6016 89.6838C23.1641 89.6838 21.9141 89.426 20.8516 88.9104C19.7891 88.387 18.9688 87.6565 18.3906 86.719C17.8125 85.7737 17.5234 84.6721 17.5234 83.4143V72.4573H21.0625V83.0979C21.0625 83.8323 21.1992 84.469 21.4727 85.0081C21.7539 85.5393 22.1562 85.9534 22.6797 86.2502C23.2109 86.5393 23.8555 86.6838 24.6133 86.6838C25.3711 86.6838 26.0117 86.5393 26.5352 86.2502C27.0664 85.9534 27.4688 85.5393 27.7422 85.0081C28.0156 84.469 28.1523 83.8323 28.1523 83.0979V72.4573H31.6914V83.4143C31.6914 84.6643 31.4023 85.762 30.8242 86.7073C30.2461 87.6448 29.4258 88.3752 28.3633 88.8987C27.3086 89.4221 26.0547 89.6838 24.6016 89.6838ZM40.9023 89.6838C39.5586 89.6838 38.3867 89.4885 37.3867 89.0979C36.3945 88.6995 35.6133 88.1331 35.043 87.3987C34.4805 86.6565 34.1641 85.7698 34.0938 84.7385L34.082 84.551H37.4336L37.457 84.6799C37.5273 85.1096 37.7188 85.4846 38.0312 85.8049C38.3516 86.1174 38.7617 86.3635 39.2617 86.5432C39.7695 86.7229 40.3438 86.8127 40.9844 86.8127C41.6406 86.8127 42.207 86.7229 42.6836 86.5432C43.1602 86.3635 43.5273 86.1096 43.7852 85.7815C44.043 85.4534 44.1719 85.0745 44.1719 84.6448V84.6331C44.1719 84.0706 43.9453 83.6252 43.4922 83.2971C43.0469 82.969 42.3008 82.6995 41.2539 82.4885L39.4609 82.1252C37.7812 81.7893 36.5234 81.219 35.6875 80.4143C34.8516 79.6096 34.4336 78.5706 34.4336 77.2971V77.2854C34.4414 76.2542 34.7188 75.3557 35.2656 74.5901C35.8203 73.8167 36.582 73.2151 37.5508 72.7854C38.5273 72.3557 39.6367 72.1409 40.8789 72.1409C42.1914 72.1409 43.3203 72.3479 44.2656 72.762C45.2109 73.1682 45.9492 73.7424 46.4805 74.4846C47.0195 75.2268 47.3164 76.0862 47.3711 77.0627L47.3828 77.2737H44.043L44.0312 77.1331C43.9688 76.6877 43.8008 76.3088 43.5273 75.9963C43.2539 75.6838 42.8906 75.4417 42.4375 75.2698C41.9922 75.0979 41.4727 75.012 40.8789 75.012C40.2852 75.012 39.7695 75.1018 39.332 75.2815C38.9023 75.4534 38.5664 75.6917 38.3242 75.9963C38.0898 76.301 37.9727 76.6565 37.9727 77.0627V77.0745C37.9727 77.6135 38.1992 78.0471 38.6523 78.3752C39.1055 78.7034 39.8203 78.969 40.7969 79.1721L42.5781 79.5354C43.7656 79.7698 44.7383 80.094 45.4961 80.5081C46.2539 80.9221 46.8125 81.4456 47.1719 82.0784C47.5312 82.7034 47.7109 83.4573 47.7109 84.3401V84.3518C47.7109 85.4377 47.4375 86.3831 46.8906 87.1877C46.3516 87.9846 45.5742 88.6018 44.5586 89.0393C43.543 89.469 42.3242 89.6838 40.9023 89.6838ZM51.8711 89.3674V86.7307H56.6992C57.7148 86.7307 58.4922 86.5276 59.0312 86.1213C59.5703 85.7073 59.8398 85.1057 59.8398 84.3167V84.2932C59.8398 83.7776 59.7148 83.344 59.4648 82.9924C59.2227 82.6331 58.8555 82.3635 58.3633 82.1838C57.8789 81.9963 57.2773 81.9026 56.5586 81.9026H51.8711V79.512H56.1484C57.1328 79.512 57.8828 79.3167 58.3984 78.926C58.9219 78.5276 59.1836 77.9651 59.1836 77.2385V77.2151C59.1836 76.5432 58.9531 76.0198 58.4922 75.6448C58.0312 75.2698 57.3867 75.0823 56.5586 75.0823H51.8711V72.4573H57.4727C58.543 72.4573 59.4648 72.6292 60.2383 72.9729C61.0117 73.3167 61.6094 73.8049 62.0312 74.4377C62.4531 75.0706 62.6641 75.8206 62.6641 76.6877V76.7112C62.6641 77.3284 62.5234 77.9026 62.2422 78.4338C61.9609 78.9573 61.5742 79.3948 61.082 79.7463C60.5977 80.0901 60.0469 80.3049 59.4297 80.3909V80.4846C60.2109 80.5393 60.9023 80.7502 61.5039 81.1174C62.1133 81.4768 62.5898 81.9534 62.9336 82.5471C63.2852 83.1331 63.4609 83.7932 63.4609 84.5276V84.551C63.4609 85.5354 63.2227 86.387 62.7461 87.1057C62.2695 87.8245 61.5938 88.3831 60.7188 88.7815C59.8516 89.1721 58.8164 89.3674 57.6133 89.3674H51.8711ZM50.1016 89.3674V72.4573H53.6406V89.3674H50.1016ZM65.7344 84.0002V81.0002H73.3633V84.0002H65.7344ZM83.9219 89.6838C82.2812 89.6838 80.8594 89.3323 79.6562 88.6292C78.4531 87.9182 77.5234 86.9104 76.8672 85.6057C76.2188 84.2932 75.8945 82.7268 75.8945 80.9065V80.8948C75.8945 79.0745 76.2188 77.512 76.8672 76.2073C77.5234 74.9026 78.4531 73.8987 79.6562 73.1956C80.8594 72.4924 82.2812 72.1409 83.9219 72.1409C85.2891 72.1409 86.5039 72.4065 87.5664 72.9377C88.6367 73.469 89.4961 74.1995 90.1445 75.1292C90.8008 76.051 91.1836 77.1096 91.293 78.3049L91.3047 78.4221H87.8594L87.8125 78.2463C87.6875 77.6213 87.4492 77.0784 87.0977 76.6174C86.7539 76.1487 86.3125 75.7854 85.7734 75.5276C85.2422 75.2698 84.625 75.1409 83.9219 75.1409C83.0234 75.1409 82.2422 75.3752 81.5781 75.844C80.9219 76.3049 80.4141 76.9651 80.0547 77.8245C79.6953 78.676 79.5156 79.6995 79.5156 80.8948V80.9065C79.5156 82.094 79.6953 83.1213 80.0547 83.9885C80.4141 84.8557 80.9258 85.5237 81.5898 85.9924C82.2539 86.4534 83.0352 86.6838 83.9336 86.6838C84.6133 86.6838 85.2188 86.5588 85.75 86.3088C86.2812 86.0588 86.7266 85.6995 87.0859 85.2307C87.4453 84.762 87.6992 84.1995 87.8477 83.5432L87.8711 83.4377H91.3164L91.3047 83.5549C91.1953 84.7502 90.8125 85.8088 90.1562 86.7307C89.5 87.6526 88.6367 88.3752 87.5664 88.8987C86.5039 89.4221 85.2891 89.6838 83.9219 89.6838ZM97.668 89.3674V75.7268H97.5742L93.2852 78.6448V75.4924L97.6562 72.4573H101.184V89.3674H97.668Z" fill="white"/>
<path fill-rule="evenodd" clip-rule="evenodd" d="M76.394 28.6359H59.4416C53.8379 28.6321 48.2371 28.633 42.639 28.6387C41.8846 28.6186 41.1296 28.6469 40.3787 28.7235C32.1907 29.8225 26.6445 36.7165 27.1587 45.1164C27.6221 52.7336 34.3776 58.8675 42.4017 58.8675C53.7485 58.8845 65.0952 58.8845 76.442 58.8675C85.0255 58.8534 91.8517 52.0979 91.7924 43.7263C91.7274 35.2586 84.9916 28.65 76.394 28.6359ZM64.6342 54.2867C62.9081 54.2815 61.1819 54.2763 59.4558 54.2763C57.775 54.2755 56.0942 54.279 54.4134 54.2826C50.3982 54.2912 46.383 54.2998 42.3678 54.248C38.1664 54.1972 34.9201 52.3296 32.9423 48.5973C31.0465 45.0231 31.2499 41.4038 33.448 38.0133C35.4908 34.863 38.5111 33.2497 42.2435 33.2356C53.6825 33.1847 65.1207 33.1847 76.5578 33.2356C82.5053 33.2723 87.0937 37.889 87.1163 43.6895C87.1389 49.5748 82.5872 54.1859 76.5409 54.2593C72.573 54.3105 68.6038 54.2986 64.6342 54.2867ZM65.458 39.9001C63.4803 39.9033 61.5019 39.9064 59.5235 39.9064C57.8634 39.9064 56.2037 39.9053 54.544 39.9042C50.2291 39.9014 45.9149 39.8986 41.5992 39.9149C39.1439 39.9234 37.5391 41.5197 37.5645 43.8224C37.5984 46.0488 39.2145 47.5717 41.6105 47.5886C43.3057 47.5999 45.0009 47.5962 46.6962 47.5924C47.5438 47.5905 48.3914 47.5886 49.239 47.5886H77.0437C79.078 47.5886 80.4879 46.7043 81.0699 45.1108C82.0305 42.4803 80.2251 39.9234 77.3065 39.9064C73.3629 39.8876 69.4117 39.8938 65.458 39.9001Z" fill="white"/>
</g>
</g>
<defs>
<filter id="filter0_d_179_2489" x="13.5234" y="24.6324" width="99.6602" height="77.0514" filterUnits="userSpaceOnUse" color-interpolation-filters="sRGB">
<feFlood flood-opacity="0" result="BackgroundImageFix"/>
<feColorMatrix in="SourceAlpha" type="matrix" values="0 0 0 0 0 0 0 0 0 0 0 0 0 0 0 0 0 0 127 0" result="hardAlpha"/>
<feOffset dx="4" dy="4"/>
<feGaussianBlur stdDeviation="4"/>
<feComposite in2="hardAlpha" operator="out"/>
<feColorMatrix type="matrix" values="0 0 0 0 0 0 0 0 0 0 0 0 0 0 0 0 0 0 0.25 0"/>
<feBlend mode="normal" in2="BackgroundImageFix" result="effect1_dropShadow_179_2489"/>
<feBlend mode="normal" in="SourceGraphic" in2="effect1_dropShadow_179_2489" result="shape"/>
</filter>
<linearGradient id="paint0_linear_179_2489" x1="0" y1="0" x2="0" y2="120" gradientUnits="userSpaceOnUse">
<stop stop-color="#9D82FF"/>
<stop offset="1" stop-color="#5856D6"/>
</linearGradient>
<clipPath id="clip0_179_2489">
<rect width="98.6667" height="98.6667" fill="white" transform="translate(10.6667 10.6666)"/>
</clipPath>
</defs>
</svg>
