<svg width="120" height="120" viewBox="0 0 120 120" fill="none" xmlns="http://www.w3.org/2000/svg">
<rect width="120" height="120" rx="26.6667" fill="url(#paint0_linear_332_5879)"/>
<g filter="url(#filter0_d_332_5879)">
<path fill-rule="evenodd" clip-rule="evenodd" d="M31.2504 65.5446H59.9608L88.946 65.5391C90.4164 65.5391 91.269 64.6564 91.269 63.1213C91.2597 55.1638 91.2597 47.2076 91.269 39.2526C91.2817 38.8967 91.2226 38.542 91.0957 38.2121C90.9688 37.8823 90.7769 37.5849 90.5329 37.3397C89.9089 36.7021 89.2929 36.0534 88.685 35.3937C88.4528 35.1358 88.1711 34.9336 87.859 34.8004C87.5469 34.6672 87.2116 34.6062 86.8754 34.6215C86.2704 34.6296 85.6637 34.6278 85.056 34.6259C84.2744 34.6236 83.4912 34.6213 82.7081 34.6399C82.2678 34.6528 82.0608 34.4944 81.8711 34.0871C81.3052 32.8656 80.7282 31.6505 80.1513 30.4354C79.6567 29.394 79.1622 28.3526 78.6747 27.3072C78.191 26.2715 77.4567 25.7887 76.3465 25.7887C65.4505 25.8034 54.5534 25.8034 43.655 25.7887C42.5501 25.7869 41.8158 26.2549 41.3321 27.3054C40.7482 28.5738 40.1499 29.8348 39.5517 31.0957C39.0696 32.112 38.5875 33.1281 38.1131 34.1479C38.0612 34.3077 37.9591 34.4437 37.8239 34.5333C37.6886 34.6229 37.5284 34.6605 37.3701 34.6399C36.7115 34.6322 36.053 34.6329 35.3946 34.6336C34.6422 34.6344 33.89 34.6351 33.1383 34.6234C32.7919 34.6107 32.4469 34.6779 32.1273 34.8201C31.8077 34.9623 31.521 35.1762 31.287 35.4471C30.7458 36.0442 30.1994 36.6413 29.6218 37.1941C28.9814 37.8115 28.7291 38.5357 28.7291 39.4572C28.7361 47.2758 28.7396 55.0944 28.7396 62.913C28.7396 64.743 29.5104 65.5446 31.2504 65.5446ZM87.0999 60.8361C87.0927 60.9266 87.0799 61.0165 87.0616 61.1052L32.933 61.107C32.9299 61.0376 32.9261 60.969 32.9223 60.901C32.9137 60.7435 32.9052 60.5894 32.9052 60.4362V40.5703C32.8977 40.3675 32.9302 40.1652 33.0005 39.9764C33.0708 39.7876 33.1774 39.6164 33.3135 39.4736C33.4497 39.3308 33.6124 39.2195 33.7913 39.1469C33.9702 39.0743 34.1615 39.0419 34.3529 39.0517C34.8661 39.0517 35.3794 39.0501 35.8929 39.0485C36.9203 39.0452 37.9482 39.0419 38.9761 39.0517C39.9714 39.0591 40.6692 38.6002 41.1094 37.6604C41.4594 36.9147 41.8113 36.1697 42.1632 35.4245C42.8976 33.8694 43.6323 32.3138 44.351 30.7515C44.5424 30.3313 44.7599 30.1987 45.1915 30.1987C55.0678 30.2159 64.943 30.2159 74.8171 30.1987C75.2817 30.1987 75.4922 30.3737 75.6871 30.7957C76.1686 31.8396 76.6598 32.8782 77.151 33.9169C77.7179 35.1154 78.2847 36.3139 78.8365 37.5203C79.3185 38.5708 80.0476 39.072 81.1542 39.0517C82.1909 39.0358 83.2322 39.0411 84.275 39.0464C84.7971 39.0491 85.3194 39.0517 85.8418 39.0517C86.4178 39.061 87.0999 39.752 87.0999 40.351V60.8361ZM60.0652 34.6326H72.3654C73.9662 34.6326 74.9946 36.1069 74.4639 37.6051C74.3191 38.0307 74.0529 38.3981 73.7021 38.6564C73.3514 38.9146 72.9335 39.0508 72.5064 39.0462C71.7687 39.0573 71.0318 39.0536 70.2947 39.0499H70.2945C69.9258 39.0481 69.5571 39.0462 69.1881 39.0462H47.9721C47.6903 39.0598 47.4079 39.0475 47.1282 39.0094C46.6366 38.9019 46.198 38.6105 45.8927 38.1885C45.5875 37.7664 45.436 37.2421 45.466 36.7114C45.496 36.1807 45.7055 35.6793 46.0561 35.2989C46.4068 34.9184 46.875 34.6845 47.3752 34.64C47.6072 34.624 47.8392 34.6293 48.0712 34.6346C48.1872 34.6373 48.3032 34.64 48.4192 34.64L60.0652 34.6326ZM39.5052 56.7137H60.0131H80.5888C82.1113 56.7137 82.9344 55.8586 82.9344 54.2608V45.9845C82.9326 44.326 82.1305 43.4672 80.5784 43.4672H39.4252C37.8905 43.469 37.0692 44.3499 37.0692 45.9956V54.1337C37.0692 55.8752 37.8661 56.7137 39.5052 56.7137ZM51.6157 52.2521H51.6157V47.9398H47.5093V47.9399H47.5092V52.2522H51.6157V52.2521ZM57.9494 47.9361L62.0367 47.9362H62.0384L62.0419 52.265H57.9493V47.9362L57.9494 47.9361ZM68.3894 52.2429L68.3895 52.2429H72.4612V47.8919L72.4611 47.8919H68.3894V52.2429Z" fill="white"/>
<path d="M17.5234 93.2112V76.301H21.0625V83.1682H28.6797V76.301H32.2188V93.2112H28.6797V86.0862H21.0625V93.2112H17.5234ZM36.4656 93.2112V76.301H42.9578C44.6453 76.301 46.0867 76.6292 47.282 77.2854C48.4852 77.9338 49.4031 78.8792 50.0359 80.1213C50.6766 81.3635 50.9969 82.8752 50.9969 84.6565V84.6799C50.9969 86.4768 50.6766 88.012 50.0359 89.2854C49.4031 90.5588 48.4891 91.5315 47.2938 92.2034C46.0984 92.8752 44.6531 93.2112 42.9578 93.2112H36.4656ZM40.0047 90.2932H42.5125C43.5672 90.2932 44.4539 90.0823 45.1727 89.6604C45.8992 89.2307 46.45 88.6018 46.825 87.7737C47.2 86.9456 47.3875 85.9221 47.3875 84.7034V84.6799C47.3875 83.5081 47.1961 82.5159 46.8133 81.7034C46.4305 80.8909 45.8758 80.2737 45.1492 79.8518C44.4227 79.4299 43.5438 79.219 42.5125 79.219H40.0047V90.2932ZM54.6813 93.2112V76.301H58.7594L63.5406 88.5002H63.6461L68.4156 76.301H72.4938V93.2112H69.3414V81.762H67.6891L71.2047 76.7698L64.7008 93.2112H62.4742L55.982 76.7698L59.4859 81.762H57.8336V93.2112H54.6813ZM76.7406 93.2112V76.301H80.2797V93.2112H76.7406ZM84.2922 93.2112V90.7971L90.175 85.2542C90.9172 84.551 91.4797 83.969 91.8625 83.5081C92.2531 83.0471 92.5188 82.637 92.6594 82.2776C92.8 81.9182 92.8703 81.5432 92.8703 81.1526V81.1174C92.8703 80.6565 92.7609 80.2463 92.5422 79.887C92.3313 79.5276 92.0305 79.2463 91.6398 79.0432C91.257 78.8401 90.8117 78.7385 90.3039 78.7385C89.7336 78.7385 89.2297 78.8557 88.7922 79.0901C88.3547 79.3167 88.0109 79.6331 87.7609 80.0393C87.5188 80.4377 87.3898 80.8948 87.3742 81.4104V81.5042H84.093V81.4104C84.093 80.3479 84.3586 79.4104 84.8898 78.5979C85.4289 77.7776 86.1672 77.137 87.1047 76.676C88.05 76.2151 89.1203 75.9846 90.3156 75.9846C91.5031 75.9846 92.5461 76.1956 93.4445 76.6174C94.3508 77.0315 95.0578 77.6096 95.5656 78.3518C96.0734 79.0862 96.3273 79.9377 96.3273 80.9065V80.9299C96.3273 81.6018 96.2023 82.2346 95.9523 82.8284C95.7102 83.4143 95.3039 84.0393 94.7336 84.7034C94.1633 85.3596 93.3859 86.1409 92.4016 87.0471L87.6555 91.3948L88.9328 89.1682V91.3948L87.6672 90.387H96.5617V93.2112H84.2922Z" fill="white"/>
</g>
<defs>
<filter id="filter0_d_332_5879" x="12.6529" y="22.4416" width="101.388" height="81.8109" filterUnits="userSpaceOnUse" color-interpolation-filters="sRGB">
<feFlood flood-opacity="0" result="BackgroundImageFix"/>
<feColorMatrix in="SourceAlpha" type="matrix" values="0 0 0 0 0 0 0 0 0 0 0 0 0 0 0 0 0 0 127 0" result="hardAlpha"/>
<feOffset dx="3.34708" dy="3.34708"/>
<feGaussianBlur stdDeviation="3.34708"/>
<feComposite in2="hardAlpha" operator="out"/>
<feColorMatrix type="matrix" values="0 0 0 0 0 0 0 0 0 0 0 0 0 0 0 0 0 0 0.25 0"/>
<feBlend mode="normal" in2="BackgroundImageFix" result="effect1_dropShadow_332_5879"/>
<feBlend mode="normal" in="SourceGraphic" in2="effect1_dropShadow_332_5879" result="shape"/>
</filter>
<linearGradient id="paint0_linear_332_5879" x1="0" y1="0" x2="0" y2="120" gradientUnits="userSpaceOnUse">
<stop stop-color="#0FB7FA"/>
<stop offset="1" stop-color="#0072FB"/>
</linearGradient>
</defs>
</svg>
