<svg width="120" height="120" viewBox="0 0 120 120" fill="none" xmlns="http://www.w3.org/2000/svg">
<rect width="120" height="120" rx="26.6667" fill="url(#paint0_linear_170_1740)"/>
<g filter="url(#filter0_d_170_1740)">
<path fill-rule="evenodd" clip-rule="evenodd" d="M31.2505 65.5446H59.9609L88.9462 65.5391C90.4165 65.5391 91.2691 64.6564 91.2691 63.1213C91.2598 55.1638 91.2598 47.2076 91.2691 39.2526C91.2818 38.8967 91.2227 38.542 91.0958 38.2121C90.9689 37.8823 90.777 37.5849 90.5331 37.3397C89.909 36.7021 89.293 36.0534 88.6852 35.3937C88.4529 35.1358 88.1713 34.9336 87.8592 34.8004C87.5471 34.6672 87.2117 34.6062 86.8755 34.6215C86.2705 34.6296 85.6638 34.6278 85.0562 34.6259C84.2745 34.6236 83.4914 34.6213 82.7082 34.6399C82.268 34.6528 82.0609 34.4944 81.8712 34.0871C81.3053 32.8656 80.7283 31.6505 80.1514 30.4354C79.6568 29.394 79.1623 28.3526 78.6748 27.3072C78.1911 26.2715 77.4568 25.7887 76.3467 25.7887C65.4507 25.8034 54.5535 25.8034 43.6552 25.7887C42.5502 25.7869 41.8159 26.2549 41.3322 27.3054C40.7483 28.5738 40.1501 29.8348 39.5519 31.0957C39.0697 32.112 38.5876 33.1281 38.1132 34.1479C38.0613 34.3077 37.9592 34.4437 37.824 34.5333C37.6887 34.6229 37.5285 34.6605 37.3702 34.6399C36.7116 34.6322 36.0531 34.6329 35.3947 34.6336C34.6423 34.6344 33.8901 34.6351 33.1385 34.6234C32.792 34.6107 32.447 34.6779 32.1274 34.8201C31.8078 34.9623 31.5211 35.1762 31.2871 35.4471C30.7459 36.0442 30.1996 36.6413 29.6219 37.1941C28.9816 37.8115 28.7292 38.5357 28.7292 39.4572C28.7362 47.2758 28.7397 55.0944 28.7397 62.913C28.7397 64.743 29.5105 65.5446 31.2505 65.5446ZM87.1 60.8361C87.0928 60.9266 87.08 61.0165 87.0617 61.1052L32.9331 61.107C32.93 61.0376 32.9262 60.969 32.9225 60.901C32.9138 60.7435 32.9053 60.5894 32.9053 60.4362V40.5703C32.8978 40.3675 32.9303 40.1652 33.0006 39.9764C33.0709 39.7876 33.1775 39.6164 33.3136 39.4736C33.4498 39.3308 33.6125 39.2195 33.7914 39.1469C33.9704 39.0743 34.1616 39.0419 34.353 39.0517C34.8662 39.0517 35.3795 39.0501 35.893 39.0485C36.9204 39.0452 37.9483 39.0419 38.9762 39.0517C39.9715 39.0591 40.6693 38.6002 41.1095 37.6604C41.4595 36.9147 41.8114 36.1697 42.1633 35.4245C42.8978 33.8694 43.6324 32.3138 44.3512 30.7515C44.5426 30.3313 44.7601 30.1987 45.1916 30.1987C55.0679 30.2159 64.9431 30.2159 74.8172 30.1987C75.2818 30.1987 75.4923 30.3737 75.6872 30.7957C76.1687 31.8396 76.6599 32.8782 77.1512 33.9169C77.718 35.1154 78.2848 36.3139 78.8366 37.5203C79.3186 38.5708 80.0477 39.072 81.1543 39.0517C82.191 39.0358 83.2323 39.0411 84.2752 39.0464C84.7972 39.0491 85.3196 39.0517 85.842 39.0517C86.4179 39.061 87.1 39.752 87.1 40.351V60.8361ZM60.0653 34.6326H72.3655C73.9663 34.6326 74.9947 36.1069 74.464 37.6051C74.3192 38.0307 74.053 38.3981 73.7022 38.6564C73.3515 38.9146 72.9336 39.0508 72.5064 39.0462C71.7688 39.0573 71.0319 39.0536 70.2948 39.0499H70.2946C69.9259 39.0481 69.5572 39.0462 69.1882 39.0462H47.9721C47.6904 39.0598 47.408 39.0475 47.1282 39.0094C46.6366 38.9019 46.1981 38.6105 45.8928 38.1885C45.5875 37.7664 45.4361 37.2421 45.4661 36.7114C45.4961 36.1807 45.7056 35.6793 46.0562 35.2989C46.4068 34.9184 46.8751 34.6845 47.3753 34.64C47.6073 34.624 47.8393 34.6293 48.0713 34.6346C48.1873 34.6373 48.3033 34.64 48.4193 34.64L60.0653 34.6326ZM39.5052 56.7137H60.0131H80.5888C82.1113 56.7137 82.9344 55.8586 82.9344 54.2608V45.9845C82.9326 44.326 82.1305 43.4672 80.5784 43.4672H39.4252C37.8905 43.469 37.0692 44.3499 37.0692 45.9956V54.1337C37.0692 55.8752 37.8661 56.7137 39.5052 56.7137ZM47.5093 52.2521V47.9398H51.6157L51.6157 47.9399V52.2522H47.5093L47.5093 52.2521ZM57.9494 47.9361H62.0367L62.0385 47.9362L62.0419 52.265H57.9494V47.9362H57.9494V47.9361ZM72.4612 47.8919V52.2429L68.3895 52.2429H68.3895V47.8919H72.4612L72.4612 47.8919Z" fill="white"/>
<path d="M17.5234 93.2112V76.301H21.0625V83.1682H28.6797V76.301H32.2188V93.2112H28.6797V86.0862H21.0625V93.2112H17.5234ZM36.4656 93.2112V76.301H42.9578C44.6453 76.301 46.0867 76.6292 47.282 77.2854C48.4852 77.9338 49.4031 78.8792 50.0359 80.1213C50.6766 81.3635 50.9969 82.8752 50.9969 84.6565V84.6799C50.9969 86.4768 50.6766 88.012 50.0359 89.2854C49.4031 90.5588 48.4891 91.5315 47.2938 92.2034C46.0984 92.8752 44.6531 93.2112 42.9578 93.2112H36.4656ZM40.0047 90.2932H42.5125C43.5672 90.2932 44.4539 90.0823 45.1727 89.6604C45.8992 89.2307 46.45 88.6018 46.825 87.7737C47.2 86.9456 47.3875 85.9221 47.3875 84.7034V84.6799C47.3875 83.5081 47.1961 82.5159 46.8133 81.7034C46.4305 80.8909 45.8758 80.2737 45.1492 79.8518C44.4227 79.4299 43.5438 79.219 42.5125 79.219H40.0047V90.2932ZM54.6813 93.2112V76.301H58.7594L63.5406 88.5002H63.6461L68.4156 76.301H72.4938V93.2112H69.3414V81.762H67.6891L71.2047 76.7698L64.7008 93.2112H62.4742L55.982 76.7698L59.4859 81.762H57.8336V93.2112H54.6813ZM76.7406 93.2112V76.301H80.2797V93.2112H76.7406ZM88.5461 93.2112V79.5706H88.4523L84.1633 82.4885V79.3362L88.5344 76.301H92.0617V93.2112H88.5461Z" fill="white"/>
</g>
<defs>
<filter id="filter0_d_170_1740" x="12.6529" y="22.4416" width="101.388" height="81.8109" filterUnits="userSpaceOnUse" color-interpolation-filters="sRGB">
<feFlood flood-opacity="0" result="BackgroundImageFix"/>
<feColorMatrix in="SourceAlpha" type="matrix" values="0 0 0 0 0 0 0 0 0 0 0 0 0 0 0 0 0 0 127 0" result="hardAlpha"/>
<feOffset dx="3.34708" dy="3.34708"/>
<feGaussianBlur stdDeviation="3.34708"/>
<feComposite in2="hardAlpha" operator="out"/>
<feColorMatrix type="matrix" values="0 0 0 0 0 0 0 0 0 0 0 0 0 0 0 0 0 0 0.25 0"/>
<feBlend mode="normal" in2="BackgroundImageFix" result="effect1_dropShadow_170_1740"/>
<feBlend mode="normal" in="SourceGraphic" in2="effect1_dropShadow_170_1740" result="shape"/>
</filter>
<linearGradient id="paint0_linear_170_1740" x1="0" y1="0" x2="0" y2="120" gradientUnits="userSpaceOnUse">
<stop stop-color="#FFC700"/>
<stop offset="1" stop-color="#FF9500"/>
</linearGradient>
</defs>
</svg>
