<svg width="126" height="138" viewBox="0 0 126 138" fill="none" xmlns="http://www.w3.org/2000/svg">
<rect x="3" width="120" height="120" rx="27.9365" fill="url(#paint0_linear_179_2501)"/>
<g clip-path="url(#clip0_179_2501)">
<g filter="url(#filter0_d_179_2501)">
<path d="M27.6016 89.6838C26.1641 89.6838 24.9141 89.426 23.8516 88.9104C22.7891 88.387 21.9688 87.6565 21.3906 86.719C20.8125 85.7737 20.5234 84.6721 20.5234 83.4143V72.4573H24.0625V83.0979C24.0625 83.8323 24.1992 84.469 24.4727 85.0081C24.7539 85.5393 25.1562 85.9534 25.6797 86.2502C26.2109 86.5393 26.8555 86.6838 27.6133 86.6838C28.3711 86.6838 29.0117 86.5393 29.5352 86.2502C30.0664 85.9534 30.4688 85.5393 30.7422 85.0081C31.0156 84.469 31.1523 83.8323 31.1523 83.0979V72.4573H34.6914V83.4143C34.6914 84.6643 34.4023 85.762 33.8242 86.7073C33.2461 87.6448 32.4258 88.3752 31.3633 88.8987C30.3086 89.4221 29.0547 89.6838 27.6016 89.6838ZM43.9023 89.6838C42.5586 89.6838 41.3867 89.4885 40.3867 89.0979C39.3945 88.6995 38.6133 88.1331 38.043 87.3987C37.4805 86.6565 37.1641 85.7698 37.0938 84.7385L37.082 84.551H40.4336L40.457 84.6799C40.5273 85.1096 40.7188 85.4846 41.0312 85.8049C41.3516 86.1174 41.7617 86.3635 42.2617 86.5432C42.7695 86.7229 43.3438 86.8127 43.9844 86.8127C44.6406 86.8127 45.207 86.7229 45.6836 86.5432C46.1602 86.3635 46.5273 86.1096 46.7852 85.7815C47.043 85.4534 47.1719 85.0745 47.1719 84.6448V84.6331C47.1719 84.0706 46.9453 83.6252 46.4922 83.2971C46.0469 82.969 45.3008 82.6995 44.2539 82.4885L42.4609 82.1252C40.7812 81.7893 39.5234 81.219 38.6875 80.4143C37.8516 79.6096 37.4336 78.5706 37.4336 77.2971V77.2854C37.4414 76.2542 37.7188 75.3557 38.2656 74.5901C38.8203 73.8167 39.582 73.2151 40.5508 72.7854C41.5273 72.3557 42.6367 72.1409 43.8789 72.1409C45.1914 72.1409 46.3203 72.3479 47.2656 72.762C48.2109 73.1682 48.9492 73.7424 49.4805 74.4846C50.0195 75.2268 50.3164 76.0862 50.3711 77.0627L50.3828 77.2737H47.043L47.0312 77.1331C46.9688 76.6877 46.8008 76.3088 46.5273 75.9963C46.2539 75.6838 45.8906 75.4417 45.4375 75.2698C44.9922 75.0979 44.4727 75.012 43.8789 75.012C43.2852 75.012 42.7695 75.1018 42.332 75.2815C41.9023 75.4534 41.5664 75.6917 41.3242 75.9963C41.0898 76.301 40.9727 76.6565 40.9727 77.0627V77.0745C40.9727 77.6135 41.1992 78.0471 41.6523 78.3752C42.1055 78.7034 42.8203 78.969 43.7969 79.1721L45.5781 79.5354C46.7656 79.7698 47.7383 80.094 48.4961 80.5081C49.2539 80.9221 49.8125 81.4456 50.1719 82.0784C50.5312 82.7034 50.7109 83.4573 50.7109 84.3401V84.3518C50.7109 85.4377 50.4375 86.3831 49.8906 87.1877C49.3516 87.9846 48.5742 88.6018 47.5586 89.0393C46.543 89.469 45.3242 89.6838 43.9023 89.6838ZM54.8711 89.3674V86.7307H59.6992C60.7148 86.7307 61.4922 86.5276 62.0312 86.1213C62.5703 85.7073 62.8398 85.1057 62.8398 84.3167V84.2932C62.8398 83.7776 62.7148 83.344 62.4648 82.9924C62.2227 82.6331 61.8555 82.3635 61.3633 82.1838C60.8789 81.9963 60.2773 81.9026 59.5586 81.9026H54.8711V79.512H59.1484C60.1328 79.512 60.8828 79.3167 61.3984 78.926C61.9219 78.5276 62.1836 77.9651 62.1836 77.2385V77.2151C62.1836 76.5432 61.9531 76.0198 61.4922 75.6448C61.0312 75.2698 60.3867 75.0823 59.5586 75.0823H54.8711V72.4573H60.4727C61.543 72.4573 62.4648 72.6292 63.2383 72.9729C64.0117 73.3167 64.6094 73.8049 65.0312 74.4377C65.4531 75.0706 65.6641 75.8206 65.6641 76.6877V76.7112C65.6641 77.3284 65.5234 77.9026 65.2422 78.4338C64.9609 78.9573 64.5742 79.3948 64.082 79.7463C63.5977 80.0901 63.0469 80.3049 62.4297 80.3909V80.4846C63.2109 80.5393 63.9023 80.7502 64.5039 81.1174C65.1133 81.4768 65.5898 81.9534 65.9336 82.5471C66.2852 83.1331 66.4609 83.7932 66.4609 84.5276V84.551C66.4609 85.5354 66.2227 86.387 65.7461 87.1057C65.2695 87.8245 64.5938 88.3831 63.7188 88.7815C62.8516 89.1721 61.8164 89.3674 60.6133 89.3674H54.8711ZM53.1016 89.3674V72.4573H56.6406V89.3674H53.1016ZM68.7344 84.0002V81.0002H76.3633V84.0002H68.7344ZM86.9219 89.6838C85.2812 89.6838 83.8594 89.3323 82.6562 88.6292C81.4531 87.9182 80.5234 86.9104 79.8672 85.6057C79.2188 84.2932 78.8945 82.7268 78.8945 80.9065V80.8948C78.8945 79.0745 79.2188 77.512 79.8672 76.2073C80.5234 74.9026 81.4531 73.8987 82.6562 73.1956C83.8594 72.4924 85.2812 72.1409 86.9219 72.1409C88.2891 72.1409 89.5039 72.4065 90.5664 72.9377C91.6367 73.469 92.4961 74.1995 93.1445 75.1292C93.8008 76.051 94.1836 77.1096 94.293 78.3049L94.3047 78.4221H90.8594L90.8125 78.2463C90.6875 77.6213 90.4492 77.0784 90.0977 76.6174C89.7539 76.1487 89.3125 75.7854 88.7734 75.5276C88.2422 75.2698 87.625 75.1409 86.9219 75.1409C86.0234 75.1409 85.2422 75.3752 84.5781 75.844C83.9219 76.3049 83.4141 76.9651 83.0547 77.8245C82.6953 78.676 82.5156 79.6995 82.5156 80.8948V80.9065C82.5156 82.094 82.6953 83.1213 83.0547 83.9885C83.4141 84.8557 83.9258 85.5237 84.5898 85.9924C85.2539 86.4534 86.0352 86.6838 86.9336 86.6838C87.6133 86.6838 88.2188 86.5588 88.75 86.3088C89.2812 86.0588 89.7266 85.6995 90.0859 85.2307C90.4453 84.762 90.6992 84.1995 90.8477 83.5432L90.8711 83.4377H94.3164L94.3047 83.5549C94.1953 84.7502 93.8125 85.8088 93.1562 86.7307C92.5 87.6526 91.6367 88.3752 90.5664 88.8987C89.5039 89.4221 88.2891 89.6838 86.9219 89.6838ZM100.668 89.3674V75.7268H100.574L96.2852 78.6448V75.4924L100.656 72.4573H104.184V89.3674H100.668Z" fill="white"/>
<path fill-rule="evenodd" clip-rule="evenodd" d="M79.394 28.6359H62.4416C56.8379 28.6321 51.2371 28.633 45.639 28.6387C44.8846 28.6186 44.1296 28.6469 43.3787 28.7235C35.1907 29.8225 29.6445 36.7165 30.1587 45.1164C30.6221 52.7336 37.3776 58.8675 45.4017 58.8675C56.7485 58.8845 68.0952 58.8845 79.442 58.8675C88.0255 58.8534 94.8517 52.0979 94.7924 43.7263C94.7274 35.2586 87.9916 28.65 79.394 28.6359ZM67.6342 54.2867C65.9081 54.2815 64.1819 54.2763 62.4558 54.2763C60.775 54.2755 59.0942 54.279 57.4134 54.2826C53.3982 54.2912 49.383 54.2998 45.3678 54.248C41.1664 54.1972 37.9201 52.3296 35.9423 48.5973C34.0465 45.0231 34.2499 41.4038 36.448 38.0133C38.4908 34.863 41.5111 33.2497 45.2435 33.2356C56.6825 33.1847 68.1207 33.1847 79.5578 33.2356C85.5053 33.2723 90.0937 37.889 90.1163 43.6895C90.1389 49.5748 85.5872 54.1859 79.5409 54.2593C75.573 54.3105 71.6038 54.2986 67.6342 54.2867ZM68.458 39.9001C66.4803 39.9033 64.5019 39.9064 62.5235 39.9064C60.8634 39.9064 59.2037 39.9053 57.544 39.9042C53.2291 39.9014 48.9149 39.8986 44.5992 39.9149C42.1439 39.9234 40.5391 41.5197 40.5645 43.8224C40.5984 46.0488 42.2145 47.5717 44.6105 47.5886C46.3057 47.5999 48.0009 47.5962 49.6962 47.5924C50.5438 47.5905 51.3914 47.5886 52.239 47.5886H80.0437C82.078 47.5886 83.4879 46.7043 84.0699 45.1108C85.0305 42.4803 83.2251 39.9234 80.3065 39.9064C76.3629 39.8876 72.4117 39.8938 68.458 39.9001Z" fill="white"/>
</g>
</g>
<defs>
<filter id="filter0_d_179_2501" x="16.5234" y="24.6324" width="99.6602" height="77.0514" filterUnits="userSpaceOnUse" color-interpolation-filters="sRGB">
<feFlood flood-opacity="0" result="BackgroundImageFix"/>
<feColorMatrix in="SourceAlpha" type="matrix" values="0 0 0 0 0 0 0 0 0 0 0 0 0 0 0 0 0 0 127 0" result="hardAlpha"/>
<feOffset dx="4" dy="4"/>
<feGaussianBlur stdDeviation="4"/>
<feComposite in2="hardAlpha" operator="out"/>
<feColorMatrix type="matrix" values="0 0 0 0 0 0 0 0 0 0 0 0 0 0 0 0 0 0 0.25 0"/>
<feBlend mode="normal" in2="BackgroundImageFix" result="effect1_dropShadow_179_2501"/>
<feBlend mode="normal" in="SourceGraphic" in2="effect1_dropShadow_179_2501" result="shape"/>
</filter>
<linearGradient id="paint0_linear_179_2501" x1="3" y1="0" x2="3" y2="120" gradientUnits="userSpaceOnUse">
<stop stop-color="#FBE300"/>
<stop offset="1" stop-color="#F5C200"/>
</linearGradient>
<clipPath id="clip0_179_2501">
<rect width="98.6667" height="98.6667" fill="white" transform="translate(13.6667 10.6666)"/>
</clipPath>
</defs>
</svg>
