<svg width="24" height="24" viewBox="0 0 24 24" fill="none" xmlns="http://www.w3.org/2000/svg">
<path d="M2.27627 0.0733071C2.65742 0.265589 2.95152 0.601117 3.2496 0.900383C3.28706 0.937798 3.32451 0.975213 3.3631 1.01376C3.48772 1.1383 3.61217 1.26301 3.73662 1.38772C3.82625 1.47738 3.91591 1.56701 4.00557 1.65664C4.19814 1.84919 4.39062 2.04182 4.58305 2.23451C4.86126 2.5131 5.1396 2.79156 5.41797 3.06999C5.86968 3.52181 6.32129 3.97373 6.77283 4.42571C7.21129 4.8646 7.64979 5.30343 8.08835 5.7422C8.11542 5.76927 8.14248 5.79635 8.17037 5.82425C8.30615 5.96009 8.44194 6.09594 8.57772 6.23178C9.70297 7.35752 10.8281 8.48342 11.953 9.60944C12.0971 9.5452 12.1955 9.47222 12.3065 9.3606C12.3388 9.32839 12.371 9.29618 12.4042 9.26299C12.4393 9.22749 12.4744 9.192 12.5105 9.15542C12.5668 9.09899 12.5668 9.09899 12.6242 9.04141C12.7504 8.91485 12.8762 8.78797 13.0021 8.66108C13.0923 8.57042 13.1825 8.47984 13.2728 8.38925C13.4674 8.19389 13.6618 7.99838 13.8562 7.80278C14.1636 7.49343 14.4714 7.18455 14.7793 6.87573C14.8847 6.77003 14.9901 6.66433 15.0954 6.55862C15.1218 6.53221 15.1481 6.50579 15.1752 6.47857C15.475 6.17785 15.7747 5.87701 16.0743 5.57614C16.1017 5.54864 16.129 5.52114 16.1573 5.4928C16.6008 5.04744 17.044 4.60179 17.4871 4.15609C17.9423 3.69827 18.398 3.2409 18.8541 2.78391C19.1352 2.50217 19.4159 2.22006 19.6962 1.93746C19.8885 1.74366 20.0812 1.55028 20.2742 1.35724C20.3855 1.24595 20.4964 1.13443 20.607 1.02251C20.7272 0.900934 20.8481 0.780111 20.9692 0.659441C21.0037 0.624258 21.0381 0.589074 21.0736 0.552824C21.4836 0.147893 21.9004 -0.0150205 22.4711 -0.0144806C22.956 -0.00510288 23.2637 0.157526 23.6154 0.49152C23.985 0.913564 24.0316 1.38165 24.0081 1.91919C23.9598 2.48831 23.4792 2.87166 23.0996 3.24977C23.0622 3.28723 23.0248 3.32468 22.9862 3.36327C22.8617 3.48789 22.737 3.61234 22.6122 3.73679C22.5226 3.82642 22.433 3.91608 22.3433 4.00573C22.1508 4.1983 21.9581 4.39079 21.7655 4.58322C21.4869 4.86143 21.2084 5.13977 20.93 5.41814C20.4782 5.86985 20.0262 6.32146 19.5743 6.773C19.1354 7.21145 18.6965 7.64995 18.2578 8.08852C18.2307 8.11559 18.2036 8.14265 18.1757 8.17054C18.0399 8.30632 17.904 8.44211 17.7682 8.57789C16.6425 9.70314 15.5165 10.8282 14.3905 11.9532C14.4549 12.0977 14.5283 12.1963 14.6402 12.3077C14.6726 12.3401 14.705 12.3726 14.7384 12.4061C14.7741 12.4414 14.8098 12.4767 14.8466 12.5131C14.9034 12.5698 14.9034 12.5698 14.9613 12.6276C15.0886 12.7546 15.2163 12.8813 15.3439 13.008C15.4351 13.0988 15.5263 13.1897 15.6174 13.2806C15.8139 13.4765 16.0105 13.6723 16.2073 13.8679C16.4921 14.1511 16.7765 14.4346 17.0609 14.7183C17.5226 15.1789 17.9844 15.6393 18.4464 16.0996C18.4741 16.1272 18.5017 16.1547 18.5302 16.1831C18.9225 16.5739 19.315 16.9646 19.7074 17.3553C19.7351 17.3828 19.7627 17.4102 19.7912 17.4386C19.8187 17.466 19.8463 17.4935 19.8748 17.5218C20.3351 17.98 20.7951 18.4385 21.2547 18.8973C21.5382 19.1802 21.822 19.4629 22.1061 19.7451C22.3009 19.9386 22.4954 20.1324 22.6896 20.3266C22.8016 20.4385 22.9138 20.5502 23.0263 20.6616C23.1484 20.7826 23.2699 20.9041 23.3913 21.0258C23.4268 21.0607 23.4623 21.0955 23.4988 21.1315C23.9038 21.5403 24.015 21.9059 24.0144 22.4735C24.005 22.9573 23.8415 23.2648 23.5084 23.6156C23.0861 23.9855 22.6182 24.0316 22.0804 24.0079C21.3152 23.9459 20.671 23.0213 20.1674 22.5166C20.0787 22.4279 19.9899 22.3392 19.9012 22.2504C19.7109 22.0601 19.5206 21.8698 19.3305 21.6793C19.0555 21.404 18.7804 21.1288 18.5053 20.8536C18.0588 20.4071 17.6125 19.9604 17.1662 19.5137C16.7329 19.08 16.2996 18.6463 15.8662 18.2127C15.8261 18.1726 15.8261 18.1726 15.7852 18.1316C15.6509 17.9973 15.5166 17.863 15.3824 17.7286C14.2704 16.6161 13.1585 15.5035 12.0468 14.3907C11.9027 14.4549 11.8043 14.5279 11.6933 14.6395C11.661 14.6718 11.6288 14.704 11.5956 14.7371C11.5605 14.7726 11.5254 14.8081 11.4893 14.8447C11.4518 14.8823 11.4142 14.92 11.3756 14.9587C11.2494 15.0853 11.1236 15.2122 10.9977 15.3391C10.9075 15.4297 10.8173 15.5203 10.727 15.6109C10.5324 15.8062 10.338 16.0018 10.1436 16.1974C9.83623 16.5067 9.52839 16.8156 9.22049 17.1244C9.11511 17.2301 9.00973 17.3358 8.90436 17.4415C8.87803 17.4679 8.85169 17.4943 8.82456 17.5216C8.5248 17.8223 8.22514 18.1231 7.92553 18.424C7.89814 18.4515 7.87075 18.479 7.84254 18.5073C7.39904 18.9527 6.95583 19.3983 6.51268 19.844C6.05746 20.3019 5.60178 20.7592 5.14573 21.2162C4.8646 21.498 4.58385 21.7801 4.30358 22.0627C4.11132 22.2565 3.91862 22.4499 3.72559 22.6429C3.61435 22.7542 3.50337 22.8657 3.39277 22.9776C3.27257 23.0992 3.15168 23.22 3.03058 23.3407C2.99614 23.3759 2.9617 23.4111 2.92622 23.4473C2.51621 23.8522 2.09941 24.0152 1.52873 24.0146C1.0438 24.0052 0.736109 23.8426 0.38442 23.5086C0.014804 23.0866 -0.0318189 22.6185 -0.00829563 22.0809C0.0400302 21.5118 0.520597 21.1285 0.900216 20.7504C0.956339 20.6942 0.956339 20.6942 1.0136 20.6369C1.13814 20.5122 1.26284 20.3878 1.38755 20.2633C1.47722 20.1737 1.56684 20.0841 1.65647 19.9944C1.84902 19.8018 2.04165 19.6093 2.23434 19.4169C2.51293 19.1387 2.7914 18.8604 3.06983 18.582C3.52164 18.1303 3.97356 17.6787 4.42555 17.2271C4.86443 16.7887 5.30326 16.3502 5.74203 15.9116C5.76911 15.8846 5.79618 15.8575 5.82408 15.8296C5.95993 15.6938 6.09577 15.558 6.23161 15.4222C7.35735 14.297 8.48326 13.1719 9.60927 12.0469C9.54503 11.9029 9.47205 11.8044 9.36043 11.6935C9.32822 11.6612 9.29601 11.629 9.26282 11.5957C9.22733 11.5607 9.19183 11.5256 9.15526 11.4895C9.11763 11.4519 9.08001 11.4144 9.04124 11.3757C8.91469 11.2496 8.7878 11.1237 8.66091 10.9979C8.57025 10.9077 8.47967 10.8174 8.38908 10.7272C8.19373 10.5326 7.99821 10.3381 7.80261 10.1438C7.49326 9.8364 7.18438 9.52856 6.87556 9.22065C6.76986 9.11528 6.66416 9.0099 6.55846 8.90453C6.53204 8.87819 6.50562 8.85186 6.4784 8.82473C6.17768 8.52496 5.87685 8.22531 5.57598 7.9257C5.53472 7.88461 5.53472 7.88461 5.49264 7.8427C5.04727 7.39921 4.60163 6.956 4.15592 6.51285C3.6981 6.05763 3.24073 5.60195 2.78374 5.1459C2.502 4.86477 2.21989 4.58402 1.93729 4.30375C1.74349 4.11148 1.55012 3.91879 1.35707 3.72576C1.24579 3.61451 1.13427 3.50354 1.02234 3.39293C0.900767 3.27274 0.779944 3.15184 0.659275 3.03075C0.624091 2.99631 0.588907 2.96187 0.552657 2.92639C0.147726 2.51638 -0.015187 2.09957 -0.0146471 1.52889C-0.00526938 1.04397 0.15736 0.736275 0.491354 0.384586C0.961896 -0.0275039 1.68775 -0.14187 2.27627 0.0733071Z" fill="#AFAFAF"/>
</svg>
