<svg width="117" height="20" viewBox="0 0 117 20" fill="none" xmlns="http://www.w3.org/2000/svg">
<path d="M4.352 4.872V14.976C4.192 15.008 3.952 15.048 3.632 15.096C3.328 15.144 3.008 15.168 2.672 15.168C1.952 15.168 1.44 15.04 1.136 14.784C0.848 14.528 0.704 14.088 0.704 13.464V4.872H4.352ZM0.704 9.432V0.407999C0.864 0.375999 1.104 0.335999 1.424 0.287999C1.76 0.239999 2.08 0.215999 2.384 0.215999C3.072 0.215999 3.568 0.335999 3.872 0.576C4.192 0.816 4.352 1.264 4.352 1.92V9.432H0.704ZM13.328 4.872V14.976C13.168 15.008 12.928 15.048 12.608 15.096C12.288 15.144 11.96 15.168 11.624 15.168C10.92 15.168 10.416 15.04 10.112 14.784C9.824 14.528 9.68 14.088 9.68 13.464V4.872H13.328ZM9.68 9.432V0.407999C9.84 0.375999 10.08 0.335999 10.4 0.287999C10.736 0.239999 11.056 0.215999 11.36 0.215999C12.048 0.215999 12.544 0.343999 12.848 0.599999C13.168 0.839999 13.328 1.296 13.328 1.968V9.432H9.68ZM2.36 9.144V6.24H11.744V9.144H2.36ZM18.3433 12.144C18.1033 11.616 17.8313 10.976 17.5273 10.224C17.2233 9.472 16.9113 8.584 16.5913 7.56C16.2713 6.536 15.9353 5.352 15.5833 4.008C15.7753 3.8 16.0313 3.624 16.3513 3.48C16.6873 3.32 17.0473 3.24 17.4313 3.24C17.9273 3.24 18.3353 3.344 18.6553 3.552C18.9753 3.76 19.2153 4.152 19.3753 4.728C19.7273 5.896 20.0873 7.056 20.4553 8.208C20.8393 9.36 21.2233 10.528 21.6073 11.712H21.7033C21.9753 10.992 22.2473 10.176 22.5193 9.264C22.8073 8.352 23.0713 7.408 23.3113 6.432C23.5673 5.456 23.7753 4.52 23.9353 3.624C24.1593 3.512 24.3993 3.424 24.6553 3.36C24.9113 3.28 25.1753 3.24 25.4473 3.24C25.9433 3.24 26.3673 3.352 26.7193 3.576C27.0713 3.784 27.2473 4.144 27.2473 4.656C27.2473 5.104 27.1833 5.656 27.0553 6.312C26.9273 6.968 26.7433 7.68 26.5033 8.448C26.2793 9.2 26.0153 9.976 25.7113 10.776C25.4233 11.56 25.1113 12.32 24.7753 13.056C24.4393 13.792 24.1033 14.456 23.7673 15.048C22.9033 16.552 22.1033 17.672 21.3672 18.408C20.6473 19.16 19.9353 19.536 19.2313 19.536C18.6553 19.536 18.1753 19.36 17.7913 19.008C17.4233 18.672 17.2073 18.232 17.1433 17.688C17.4793 17.384 17.8313 17.04 18.1992 16.656C18.5673 16.288 18.9193 15.888 19.2553 15.456C19.6073 15.04 19.9113 14.624 20.1673 14.208C19.8953 14.128 19.6073 13.952 19.3033 13.68C19.0153 13.408 18.6953 12.896 18.3433 12.144ZM34.8144 15.336C34.2224 15.336 33.6864 15.264 33.2064 15.12C32.7264 14.976 32.3024 14.808 31.9344 14.616V11.616C32.2224 11.856 32.5584 12.072 32.9424 12.264C33.3264 12.44 33.7744 12.528 34.2864 12.528C35.1664 12.528 35.8464 12.248 36.3264 11.688C36.8224 11.128 37.0704 10.288 37.0704 9.168C37.0704 8.4 36.9584 7.784 36.7344 7.32C36.5264 6.84 36.2224 6.488 35.8224 6.264C35.4224 6.04 34.9504 5.928 34.4064 5.928C34.0224 5.928 33.6864 5.976 33.3984 6.072C33.1104 6.152 32.8624 6.248 32.6544 6.36V13.728H29.1264V5.88C29.1264 5.48 29.2064 5.152 29.3664 4.896C29.5424 4.624 29.7904 4.384 30.1104 4.176C30.5904 3.872 31.1984 3.624 31.9344 3.432C32.6704 3.224 33.4944 3.12 34.4064 3.12C35.6384 3.12 36.7264 3.336 37.6704 3.768C38.6144 4.184 39.3504 4.84 39.8784 5.736C40.4224 6.616 40.6944 7.76 40.6944 9.168C40.6944 10.528 40.4384 11.664 39.9264 12.576C39.4144 13.488 38.7184 14.176 37.8384 14.64C36.9584 15.104 35.9504 15.336 34.8144 15.336ZM29.1264 12.816H32.6544V19.272C32.5104 19.32 32.2944 19.368 32.0064 19.416C31.7184 19.464 31.4064 19.488 31.0704 19.488C30.3984 19.488 29.9024 19.368 29.5824 19.128C29.2784 18.888 29.1264 18.456 29.1264 17.832V12.816ZM44.4431 8.52L50.4191 7.584C50.3711 7.12 50.1711 6.704 49.8191 6.336C49.4671 5.952 48.9471 5.76 48.2591 5.76C47.5231 5.76 46.9151 6.008 46.4351 6.504C45.9551 6.984 45.7071 7.68 45.6911 8.592L45.7871 10.224C45.9471 11.104 46.3311 11.736 46.9391 12.12C47.5471 12.488 48.2671 12.672 49.0991 12.672C49.7711 12.672 50.4031 12.584 50.9951 12.408C51.5871 12.216 52.0671 12.008 52.4351 11.784C52.6591 11.928 52.8511 12.128 53.0111 12.384C53.1711 12.64 53.2511 12.912 53.2511 13.2C53.2511 13.68 53.0591 14.08 52.6751 14.4C52.3071 14.72 51.7871 14.96 51.1151 15.12C50.4591 15.28 49.7071 15.36 48.8591 15.36C47.6271 15.36 46.5231 15.128 45.5471 14.664C44.5711 14.2 43.8031 13.504 43.2431 12.576C42.6831 11.648 42.4031 10.488 42.4031 9.096C42.4031 8.072 42.5631 7.184 42.8831 6.432C43.2031 5.68 43.6351 5.064 44.1791 4.584C44.7391 4.088 45.3631 3.72 46.0511 3.48C46.7551 3.24 47.4831 3.12 48.2351 3.12C49.3391 3.12 50.2991 3.344 51.1151 3.792C51.9471 4.224 52.5951 4.816 53.0591 5.568C53.5231 6.32 53.7551 7.192 53.7551 8.184C53.7551 8.68 53.6191 9.056 53.3471 9.312C53.0751 9.552 52.6991 9.712 52.2191 9.792L44.5871 10.92L44.4431 8.52ZM59.4669 9.576H55.9389V6.144C55.9389 5.696 56.0429 5.32 56.2509 5.016C56.4749 4.696 56.7789 4.416 57.1629 4.176C57.6909 3.856 58.3229 3.608 59.0589 3.432C59.8109 3.24 60.5949 3.144 61.4109 3.144C63.0429 3.144 63.8589 3.688 63.8589 4.776C63.8589 5.032 63.8189 5.272 63.7389 5.496C63.6749 5.704 63.5869 5.888 63.4749 6.048C63.3149 6.016 63.1149 5.992 62.8749 5.976C62.6509 5.96 62.4109 5.952 62.1549 5.952C61.6589 5.952 61.1709 6.008 60.6909 6.12C60.2269 6.216 59.8189 6.368 59.4669 6.576V9.576ZM59.4669 8.736V14.976C59.3229 15.008 59.1069 15.048 58.8189 15.096C58.5309 15.144 58.2189 15.168 57.8829 15.168C57.2109 15.168 56.7149 15.048 56.3949 14.808C56.0909 14.568 55.9389 14.136 55.9389 13.512V8.664L59.4669 8.736ZM75.458 7.704C75.458 6.648 75.274 5.776 74.906 5.088C74.554 4.4 74.058 3.888 73.418 3.552C72.778 3.2 72.042 3.024 71.21 3.024C70.922 3.024 70.642 3.032 70.37 3.048C70.098 3.064 69.834 3.096 69.578 3.144V12.264C69.802 12.312 70.066 12.352 70.37 12.384C70.69 12.4 70.986 12.408 71.258 12.408C72.538 12.408 73.554 12.016 74.306 11.232C75.074 10.448 75.458 9.272 75.458 7.704ZM79.202 7.656C79.202 9.384 78.866 10.816 78.194 11.952C77.538 13.088 76.61 13.944 75.41 14.52C74.226 15.08 72.834 15.36 71.234 15.36C70.706 15.36 70.058 15.32 69.29 15.24C68.522 15.176 67.826 15.032 67.202 14.808C66.37 14.504 65.954 13.976 65.954 13.224V1.728C65.954 1.408 66.042 1.168 66.218 1.008C66.394 0.831999 66.634 0.687999 66.938 0.576C67.578 0.368 68.258 0.231999 68.978 0.167999C69.714 0.103999 70.386 0.0719991 70.994 0.0719991C72.642 0.0719991 74.074 0.351999 75.29 0.912C76.522 1.456 77.482 2.288 78.17 3.408C78.858 4.528 79.202 5.944 79.202 7.656ZM85.0841 9.576H81.5561V6.144C81.5561 5.696 81.6601 5.32 81.8681 5.016C82.0921 4.696 82.3961 4.416 82.7801 4.176C83.3081 3.856 83.9401 3.608 84.6761 3.432C85.4281 3.24 86.2121 3.144 87.0281 3.144C88.6601 3.144 89.4761 3.688 89.4761 4.776C89.4761 5.032 89.4361 5.272 89.3561 5.496C89.2921 5.704 89.2041 5.888 89.0921 6.048C88.9321 6.016 88.7321 5.992 88.4921 5.976C88.2681 5.96 88.0281 5.952 87.7721 5.952C87.2761 5.952 86.7881 6.008 86.3081 6.12C85.8441 6.216 85.4361 6.368 85.0841 6.576V9.576ZM85.0841 8.736V14.976C84.9401 15.008 84.7241 15.048 84.4361 15.096C84.1481 15.144 83.8361 15.168 83.5001 15.168C82.8281 15.168 82.3321 15.048 82.0121 14.808C81.7081 14.568 81.5561 14.136 81.5561 13.512V8.664L85.0841 8.736ZM102.477 9.24C102.477 10.488 102.229 11.576 101.733 12.504C101.237 13.416 100.533 14.12 99.6208 14.616C98.7088 15.112 97.6368 15.36 96.4048 15.36C95.1728 15.36 94.1008 15.12 93.1888 14.64C92.2768 14.144 91.5728 13.44 91.0768 12.528C90.5808 11.6 90.3328 10.504 90.3328 9.24C90.3328 7.992 90.5808 6.912 91.0768 6C91.5888 5.088 92.3008 4.384 93.2128 3.888C94.1408 3.376 95.2048 3.12 96.4048 3.12C97.6208 3.12 98.6848 3.376 99.5968 3.888C100.509 4.384 101.213 5.096 101.709 6.024C102.221 6.936 102.477 8.008 102.477 9.24ZM96.4048 5.928C95.6528 5.928 95.0528 6.216 94.6048 6.792C94.1728 7.368 93.9568 8.184 93.9568 9.24C93.9568 10.312 94.1728 11.136 94.6048 11.712C95.0368 12.288 95.6368 12.576 96.4048 12.576C97.1888 12.576 97.7888 12.288 98.2048 11.712C98.6368 11.12 98.8528 10.296 98.8528 9.24C98.8528 8.2 98.6368 7.392 98.2048 6.816C97.7728 6.224 97.1728 5.928 96.4048 5.928ZM110.424 15.336C109.832 15.336 109.296 15.264 108.816 15.12C108.336 14.976 107.912 14.808 107.544 14.616V11.616C107.832 11.856 108.168 12.072 108.552 12.264C108.936 12.44 109.384 12.528 109.896 12.528C110.776 12.528 111.456 12.248 111.936 11.688C112.432 11.128 112.68 10.288 112.68 9.168C112.68 8.4 112.568 7.784 112.344 7.32C112.136 6.84 111.832 6.488 111.432 6.264C111.032 6.04 110.56 5.928 110.016 5.928C109.632 5.928 109.296 5.976 109.008 6.072C108.72 6.152 108.472 6.248 108.264 6.36V13.728H104.736V5.88C104.736 5.48 104.816 5.152 104.976 4.896C105.152 4.624 105.4 4.384 105.72 4.176C106.2 3.872 106.808 3.624 107.544 3.432C108.28 3.224 109.104 3.12 110.016 3.12C111.248 3.12 112.336 3.336 113.28 3.768C114.224 4.184 114.96 4.84 115.488 5.736C116.032 6.616 116.304 7.76 116.304 9.168C116.304 10.528 116.048 11.664 115.536 12.576C115.024 13.488 114.328 14.176 113.448 14.64C112.568 15.104 111.56 15.336 110.424 15.336ZM104.736 12.816H108.264V19.272C108.12 19.32 107.904 19.368 107.616 19.416C107.328 19.464 107.016 19.488 106.68 19.488C106.008 19.488 105.512 19.368 105.192 19.128C104.888 18.888 104.736 18.456 104.736 17.832V12.816Z" fill="white"/>
</svg>
