<svg width="120" height="120" viewBox="0 0 120 120" fill="none" xmlns="http://www.w3.org/2000/svg">
<rect width="120" height="120" rx="26.6667" fill="url(#paint0_linear_2970_9084)"/>
<g clip-path="url(#clip0_2970_9084)">
<g filter="url(#filter0_d_2970_9084)">
<path d="M24.6016 89.6837C23.1641 89.6837 21.9141 89.4259 20.8516 88.9103C19.7891 88.3868 18.9688 87.6564 18.3906 86.7189C17.8125 85.7736 17.5234 84.672 17.5234 83.4142V72.4572H21.0625V83.0978C21.0625 83.8322 21.1992 84.4689 21.4727 85.0079C21.7539 85.5392 22.1562 85.9532 22.6797 86.2501C23.2109 86.5392 23.8555 86.6837 24.6133 86.6837C25.3711 86.6837 26.0117 86.5392 26.5352 86.2501C27.0664 85.9532 27.4688 85.5392 27.7422 85.0079C28.0156 84.4689 28.1523 83.8322 28.1523 83.0978V72.4572H31.6914V83.4142C31.6914 84.6642 31.4023 85.7618 30.8242 86.7072C30.2461 87.6447 29.4258 88.3751 28.3633 88.8986C27.3086 89.422 26.0547 89.6837 24.6016 89.6837ZM40.9023 89.6837C39.5586 89.6837 38.3867 89.4884 37.3867 89.0978C36.3945 88.6993 35.6133 88.1329 35.043 87.3986C34.4805 86.6564 34.1641 85.7697 34.0938 84.7384L34.082 84.5509H37.4336L37.457 84.6798C37.5273 85.1095 37.7188 85.4845 38.0312 85.8048C38.3516 86.1173 38.7617 86.3634 39.2617 86.5431C39.7695 86.7228 40.3438 86.8126 40.9844 86.8126C41.6406 86.8126 42.207 86.7228 42.6836 86.5431C43.1602 86.3634 43.5273 86.1095 43.7852 85.7814C44.043 85.4532 44.1719 85.0743 44.1719 84.6447V84.6329C44.1719 84.0704 43.9453 83.6251 43.4922 83.297C43.0469 82.9689 42.3008 82.6993 41.2539 82.4884L39.4609 82.1251C37.7812 81.7892 36.5234 81.2189 35.6875 80.4142C34.8516 79.6095 34.4336 78.5704 34.4336 77.297V77.2853C34.4414 76.254 34.7188 75.3556 35.2656 74.59C35.8203 73.8165 36.582 73.215 37.5508 72.7853C38.5273 72.3556 39.6367 72.1407 40.8789 72.1407C42.1914 72.1407 43.3203 72.3478 44.2656 72.7618C45.2109 73.1681 45.9492 73.7423 46.4805 74.4845C47.0195 75.2267 47.3164 76.0861 47.3711 77.0626L47.3828 77.2736H44.043L44.0312 77.1329C43.9688 76.6876 43.8008 76.3087 43.5273 75.9962C43.2539 75.6837 42.8906 75.4415 42.4375 75.2697C41.9922 75.0978 41.4727 75.0118 40.8789 75.0118C40.2852 75.0118 39.7695 75.1017 39.332 75.2814C38.9023 75.4532 38.5664 75.6915 38.3242 75.9962C38.0898 76.3009 37.9727 76.6564 37.9727 77.0626V77.0743C37.9727 77.6134 38.1992 78.047 38.6523 78.3751C39.1055 78.7032 39.8203 78.9689 40.7969 79.172L42.5781 79.5353C43.7656 79.7697 44.7383 80.0939 45.4961 80.5079C46.2539 80.922 46.8125 81.4454 47.1719 82.0782C47.5312 82.7032 47.7109 83.4572 47.7109 84.34V84.3517C47.7109 85.4376 47.4375 86.3829 46.8906 87.1876C46.3516 87.9845 45.5742 88.6017 44.5586 89.0392C43.543 89.4689 42.3242 89.6837 40.9023 89.6837ZM51.8711 89.3673V86.7306H56.6992C57.7148 86.7306 58.4922 86.5275 59.0312 86.1212C59.5703 85.7072 59.8398 85.1056 59.8398 84.3165V84.2931C59.8398 83.7775 59.7148 83.3439 59.4648 82.9923C59.2227 82.6329 58.8555 82.3634 58.3633 82.1837C57.8789 81.9962 57.2773 81.9025 56.5586 81.9025H51.8711V79.5118H56.1484C57.1328 79.5118 57.8828 79.3165 58.3984 78.9259C58.9219 78.5275 59.1836 77.965 59.1836 77.2384V77.215C59.1836 76.5431 58.9531 76.0197 58.4922 75.6447C58.0312 75.2697 57.3867 75.0822 56.5586 75.0822H51.8711V72.4572H57.4727C58.543 72.4572 59.4648 72.629 60.2383 72.9728C61.0117 73.3165 61.6094 73.8048 62.0312 74.4376C62.4531 75.0704 62.6641 75.8204 62.6641 76.6876V76.7111C62.6641 77.3282 62.5234 77.9025 62.2422 78.4337C61.9609 78.9572 61.5742 79.3947 61.082 79.7462C60.5977 80.09 60.0469 80.3048 59.4297 80.3907V80.4845C60.2109 80.5392 60.9023 80.7501 61.5039 81.1173C62.1133 81.4767 62.5898 81.9532 62.9336 82.547C63.2852 83.1329 63.4609 83.7931 63.4609 84.5275V84.5509C63.4609 85.5353 63.2227 86.3868 62.7461 87.1056C62.2695 87.8243 61.5938 88.3829 60.7188 88.7814C59.8516 89.172 58.8164 89.3673 57.6133 89.3673H51.8711ZM50.1016 89.3673V72.4572H53.6406V89.3673H50.1016ZM65.7344 84.0001V81.0001H73.3633V84.0001H65.7344ZM83.9219 89.6837C82.2812 89.6837 80.8594 89.3322 79.6562 88.629C78.4531 87.9181 77.5234 86.9103 76.8672 85.6056C76.2188 84.2931 75.8945 82.7267 75.8945 80.9064V80.8947C75.8945 79.0743 76.2188 77.5118 76.8672 76.2072C77.5234 74.9025 78.4531 73.8986 79.6562 73.1954C80.8594 72.4923 82.2812 72.1407 83.9219 72.1407C85.2891 72.1407 86.5039 72.4064 87.5664 72.9376C88.6367 73.4689 89.4961 74.1993 90.1445 75.129C90.8008 76.0509 91.1836 77.1095 91.293 78.3048L91.3047 78.422H87.8594L87.8125 78.2462C87.6875 77.6212 87.4492 77.0782 87.0977 76.6173C86.7539 76.1486 86.3125 75.7853 85.7734 75.5275C85.2422 75.2697 84.625 75.1407 83.9219 75.1407C83.0234 75.1407 82.2422 75.3751 81.5781 75.8439C80.9219 76.3048 80.4141 76.965 80.0547 77.8243C79.6953 78.6759 79.5156 79.6993 79.5156 80.8947V80.9064C79.5156 82.0939 79.6953 83.1212 80.0547 83.9884C80.4141 84.8556 80.9258 85.5236 81.5898 85.9923C82.2539 86.4532 83.0352 86.6837 83.9336 86.6837C84.6133 86.6837 85.2188 86.5587 85.75 86.3087C86.2812 86.0587 86.7266 85.6993 87.0859 85.2306C87.4453 84.7618 87.6992 84.1993 87.8477 83.5431L87.8711 83.4376H91.3164L91.3047 83.5548C91.1953 84.7501 90.8125 85.8087 90.1562 86.7306C89.5 87.6525 88.6367 88.3751 87.5664 88.8986C86.5039 89.422 85.2891 89.6837 83.9219 89.6837ZM97.668 89.3673V75.7267H97.5742L93.2852 78.6447V75.4923L97.6562 72.4572H101.184V89.3673H97.668Z" fill="white"/>
<path d="M42.6385 28.6388C48.2365 28.6331 53.8377 28.6321 59.4413 28.6359H76.3934C84.9909 28.65 91.7267 35.2582 91.7919 43.7257C91.8512 52.0972 85.0256 58.853 76.4423 58.8673C65.0955 58.8843 53.748 58.8843 42.4012 58.8673C34.3773 58.8671 27.6225 52.7334 27.1591 45.1163C26.6448 36.7164 32.1908 29.8228 40.3788 28.7238C41.1295 28.6473 41.8842 28.6187 42.6385 28.6388ZM76.5575 33.2355C65.1204 33.1846 53.682 33.1846 42.243 33.2355C38.511 33.2497 35.4908 34.8628 33.4481 38.0128C31.25 41.4032 31.0466 45.0228 32.9423 48.5968C34.92 52.3291 38.1667 54.1973 42.368 54.2482C48.0639 54.3216 53.7601 54.2737 59.4559 54.2765C65.1518 54.2765 70.8478 54.3324 76.5409 54.2589C82.5871 54.1854 87.1386 49.5748 87.1161 43.6896C87.0935 37.889 82.5049 33.2722 76.5575 33.2355ZM77.3065 39.9064C80.2251 39.9233 82.0306 42.4801 81.0702 45.1105C80.4882 46.704 79.0781 47.589 77.0438 47.589H49.2391C46.6963 47.589 44.1531 47.6059 41.6102 47.589C39.2145 47.5719 37.5983 46.0486 37.5643 43.8224C37.5389 41.5197 39.1442 39.9236 41.5995 39.9152C47.575 39.8926 53.5478 39.9064 59.5233 39.9064C65.4566 39.9064 71.3902 39.8781 77.3065 39.9064Z" fill="white"/>
</g>
</g>
<defs>
<filter id="filter0_d_2970_9084" x="13.5234" y="24.6326" width="99.6602" height="77.0511" filterUnits="userSpaceOnUse" color-interpolation-filters="sRGB">
<feFlood flood-opacity="0" result="BackgroundImageFix"/>
<feColorMatrix in="SourceAlpha" type="matrix" values="0 0 0 0 0 0 0 0 0 0 0 0 0 0 0 0 0 0 127 0" result="hardAlpha"/>
<feOffset dx="4" dy="4"/>
<feGaussianBlur stdDeviation="4"/>
<feComposite in2="hardAlpha" operator="out"/>
<feColorMatrix type="matrix" values="0 0 0 0 0 0 0 0 0 0 0 0 0 0 0 0 0 0 0.25 0"/>
<feBlend mode="normal" in2="BackgroundImageFix" result="effect1_dropShadow_2970_9084"/>
<feBlend mode="normal" in="SourceGraphic" in2="effect1_dropShadow_2970_9084" result="shape"/>
</filter>
<linearGradient id="paint0_linear_2970_9084" x1="0" y1="0" x2="0" y2="120" gradientUnits="userSpaceOnUse">
<stop stop-color="#9D82FF"/>
<stop offset="1" stop-color="#5856D6"/>
</linearGradient>
<clipPath id="clip0_2970_9084">
<rect width="98.6667" height="98.6667" fill="white" transform="translate(10.6666 10.6666)"/>
</clipPath>
</defs>
</svg>
