<svg width="120" height="120" viewBox="0 0 120 120" fill="none" xmlns="http://www.w3.org/2000/svg">
<rect width="120" height="120" rx="27.9365" fill="url(#paint0_linear_2970_9093)"/>
<g clip-path="url(#clip0_2970_9093)">
<g filter="url(#filter0_d_2970_9093)">
<path d="M23.1016 89.6837C21.6641 89.6837 20.4141 89.4259 19.3516 88.9103C18.2891 88.3868 17.4688 87.6564 16.8906 86.7189C16.3125 85.7736 16.0234 84.672 16.0234 83.4142V72.4572H19.5625V83.0978C19.5625 83.8322 19.6992 84.4689 19.9727 85.0079C20.2539 85.5392 20.6562 85.9532 21.1797 86.2501C21.7109 86.5392 22.3555 86.6837 23.1133 86.6837C23.8711 86.6837 24.5117 86.5392 25.0352 86.2501C25.5664 85.9532 25.9688 85.5392 26.2422 85.0079C26.5156 84.4689 26.6523 83.8322 26.6523 83.0978V72.4572H30.1914V83.4142C30.1914 84.6642 29.9023 85.7618 29.3242 86.7072C28.7461 87.6447 27.9258 88.3751 26.8633 88.8986C25.8086 89.422 24.5547 89.6837 23.1016 89.6837ZM39.4023 89.6837C38.0586 89.6837 36.8867 89.4884 35.8867 89.0978C34.8945 88.6993 34.1133 88.1329 33.543 87.3986C32.9805 86.6564 32.6641 85.7697 32.5938 84.7384L32.582 84.5509H35.9336L35.957 84.6798C36.0273 85.1095 36.2188 85.4845 36.5312 85.8048C36.8516 86.1173 37.2617 86.3634 37.7617 86.5431C38.2695 86.7228 38.8438 86.8126 39.4844 86.8126C40.1406 86.8126 40.707 86.7228 41.1836 86.5431C41.6602 86.3634 42.0273 86.1095 42.2852 85.7814C42.543 85.4532 42.6719 85.0743 42.6719 84.6447V84.6329C42.6719 84.0704 42.4453 83.6251 41.9922 83.297C41.5469 82.9689 40.8008 82.6993 39.7539 82.4884L37.9609 82.1251C36.2812 81.7892 35.0234 81.2189 34.1875 80.4142C33.3516 79.6095 32.9336 78.5704 32.9336 77.297V77.2853C32.9414 76.254 33.2188 75.3556 33.7656 74.59C34.3203 73.8165 35.082 73.215 36.0508 72.7853C37.0273 72.3556 38.1367 72.1407 39.3789 72.1407C40.6914 72.1407 41.8203 72.3478 42.7656 72.7618C43.7109 73.1681 44.4492 73.7423 44.9805 74.4845C45.5195 75.2267 45.8164 76.0861 45.8711 77.0626L45.8828 77.2736H42.543L42.5312 77.1329C42.4688 76.6876 42.3008 76.3087 42.0273 75.9962C41.7539 75.6837 41.3906 75.4415 40.9375 75.2697C40.4922 75.0978 39.9727 75.0118 39.3789 75.0118C38.7852 75.0118 38.2695 75.1017 37.832 75.2814C37.4023 75.4532 37.0664 75.6915 36.8242 75.9962C36.5898 76.3009 36.4727 76.6564 36.4727 77.0626V77.0743C36.4727 77.6134 36.6992 78.047 37.1523 78.3751C37.6055 78.7032 38.3203 78.9689 39.2969 79.172L41.0781 79.5353C42.2656 79.7697 43.2383 80.0939 43.9961 80.5079C44.7539 80.922 45.3125 81.4454 45.6719 82.0782C46.0312 82.7032 46.2109 83.4572 46.2109 84.34V84.3517C46.2109 85.4376 45.9375 86.3829 45.3906 87.1876C44.8516 87.9845 44.0742 88.6017 43.0586 89.0392C42.043 89.4689 40.8242 89.6837 39.4023 89.6837ZM50.3711 89.3673V86.7306H55.1992C56.2148 86.7306 56.9922 86.5275 57.5312 86.1212C58.0703 85.7072 58.3398 85.1056 58.3398 84.3165V84.2931C58.3398 83.7775 58.2148 83.3439 57.9648 82.9923C57.7227 82.6329 57.3555 82.3634 56.8633 82.1837C56.3789 81.9962 55.7773 81.9025 55.0586 81.9025H50.3711V79.5118H54.6484C55.6328 79.5118 56.3828 79.3165 56.8984 78.9259C57.4219 78.5275 57.6836 77.965 57.6836 77.2384V77.215C57.6836 76.5431 57.4531 76.0197 56.9922 75.6447C56.5312 75.2697 55.8867 75.0822 55.0586 75.0822H50.3711V72.4572H55.9727C57.043 72.4572 57.9648 72.629 58.7383 72.9728C59.5117 73.3165 60.1094 73.8048 60.5312 74.4376C60.9531 75.0704 61.1641 75.8204 61.1641 76.6876V76.7111C61.1641 77.3282 61.0234 77.9025 60.7422 78.4337C60.4609 78.9572 60.0742 79.3947 59.582 79.7462C59.0977 80.09 58.5469 80.3048 57.9297 80.3907V80.4845C58.7109 80.5392 59.4023 80.7501 60.0039 81.1173C60.6133 81.4767 61.0898 81.9532 61.4336 82.547C61.7852 83.1329 61.9609 83.7931 61.9609 84.5275V84.5509C61.9609 85.5353 61.7227 86.3868 61.2461 87.1056C60.7695 87.8243 60.0938 88.3829 59.2188 88.7814C58.3516 89.172 57.3164 89.3673 56.1133 89.3673H50.3711ZM48.6016 89.3673V72.4572H52.1406V89.3673H48.6016ZM64.2344 84.0001V81.0001H71.8633V84.0001H64.2344ZM82.4219 89.6837C80.7812 89.6837 79.3594 89.3322 78.1562 88.629C76.9531 87.9181 76.0234 86.9103 75.3672 85.6056C74.7188 84.2931 74.3945 82.7267 74.3945 80.9064V80.8947C74.3945 79.0743 74.7188 77.5118 75.3672 76.2072C76.0234 74.9025 76.9531 73.8986 78.1562 73.1954C79.3594 72.4923 80.7812 72.1407 82.4219 72.1407C83.7891 72.1407 85.0039 72.4064 86.0664 72.9376C87.1367 73.4689 87.9961 74.1993 88.6445 75.129C89.3008 76.0509 89.6836 77.1095 89.793 78.3048L89.8047 78.422H86.3594L86.3125 78.2462C86.1875 77.6212 85.9492 77.0782 85.5977 76.6173C85.2539 76.1486 84.8125 75.7853 84.2734 75.5275C83.7422 75.2697 83.125 75.1407 82.4219 75.1407C81.5234 75.1407 80.7422 75.3751 80.0781 75.8439C79.4219 76.3048 78.9141 76.965 78.5547 77.8243C78.1953 78.6759 78.0156 79.6993 78.0156 80.8947V80.9064C78.0156 82.0939 78.1953 83.1212 78.5547 83.9884C78.9141 84.8556 79.4258 85.5236 80.0898 85.9923C80.7539 86.4532 81.5352 86.6837 82.4336 86.6837C83.1133 86.6837 83.7188 86.5587 84.25 86.3087C84.7812 86.0587 85.2266 85.6993 85.5859 85.2306C85.9453 84.7618 86.1992 84.1993 86.3477 83.5431L86.3711 83.4376H89.8164L89.8047 83.5548C89.6953 84.7501 89.3125 85.8087 88.6562 86.7306C88 87.6525 87.1367 88.3751 86.0664 88.8986C85.0039 89.422 83.7891 89.6837 82.4219 89.6837ZM91.9609 89.3673V86.9532L97.8438 81.4103C98.5859 80.7072 99.1484 80.1251 99.5312 79.6642C99.9219 79.2032 100.188 78.7931 100.328 78.4337C100.469 78.0743 100.539 77.6993 100.539 77.3087V77.2736C100.539 76.8126 100.43 76.4025 100.211 76.0431C100 75.6837 99.6992 75.4025 99.3086 75.1993C98.9258 74.9962 98.4805 74.8947 97.9727 74.8947C97.4023 74.8947 96.8984 75.0118 96.4609 75.2462C96.0234 75.4728 95.6797 75.7892 95.4297 76.1954C95.1875 76.5939 95.0586 77.0509 95.043 77.5665V77.6603H91.7617V77.5665C91.7617 76.504 92.0273 75.5665 92.5586 74.754C93.0977 73.9337 93.8359 73.2931 94.7734 72.8322C95.7188 72.3712 96.7891 72.1407 97.9844 72.1407C99.1719 72.1407 100.215 72.3517 101.113 72.7736C102.02 73.1876 102.727 73.7657 103.234 74.5079C103.742 75.2423 103.996 76.0939 103.996 77.0626V77.0861C103.996 77.7579 103.871 78.3907 103.621 78.9845C103.379 79.5704 102.973 80.1954 102.402 80.8595C101.832 81.5157 101.055 82.297 100.07 83.2032L95.3242 87.5509L96.6016 85.3243V87.5509L95.3359 86.5431H104.23V89.3673H91.9609Z" fill="white"/>
<path d="M41.1385 28.6388C46.7365 28.6331 52.3377 28.6321 57.9413 28.6359H74.8934C83.4909 28.65 90.2267 35.2582 90.2919 43.7257C90.3512 52.0972 83.5256 58.853 74.9423 58.8673C63.5955 58.8843 52.248 58.8843 40.9012 58.8673C32.8773 58.8671 26.1225 52.7334 25.6591 45.1163C25.1448 36.7164 30.6908 29.8228 38.8788 28.7238C39.6295 28.6473 40.3842 28.6187 41.1385 28.6388ZM75.0575 33.2355C63.6204 33.1846 52.182 33.1846 40.743 33.2355C37.011 33.2497 33.9908 34.8628 31.9481 38.0128C29.75 41.4032 29.5466 45.0228 31.4423 48.5968C33.42 52.3291 36.6667 54.1973 40.868 54.2482C46.5639 54.3216 52.2601 54.2737 57.9559 54.2765C63.6518 54.2765 69.3478 54.3324 75.0409 54.2589C81.0871 54.1854 85.6386 49.5748 85.6161 43.6896C85.5935 37.889 81.0049 33.2722 75.0575 33.2355ZM75.8065 39.9064C78.7251 39.9233 80.5306 42.4801 79.5702 45.1105C78.9882 46.704 77.5781 47.589 75.5438 47.589H47.7391C45.1963 47.589 42.6531 47.6059 40.1102 47.589C37.7145 47.5719 36.0983 46.0486 36.0643 43.8224C36.0389 41.5197 37.6442 39.9236 40.0995 39.9152C46.075 39.8926 52.0478 39.9064 58.0233 39.9064C63.9566 39.9064 69.8902 39.8781 75.8065 39.9064Z" fill="white"/>
</g>
</g>
<defs>
<filter id="filter0_d_2970_9093" x="12.0234" y="24.6326" width="104.207" height="77.0511" filterUnits="userSpaceOnUse" color-interpolation-filters="sRGB">
<feFlood flood-opacity="0" result="BackgroundImageFix"/>
<feColorMatrix in="SourceAlpha" type="matrix" values="0 0 0 0 0 0 0 0 0 0 0 0 0 0 0 0 0 0 127 0" result="hardAlpha"/>
<feOffset dx="4" dy="4"/>
<feGaussianBlur stdDeviation="4"/>
<feComposite in2="hardAlpha" operator="out"/>
<feColorMatrix type="matrix" values="0 0 0 0 0 0 0 0 0 0 0 0 0 0 0 0 0 0 0.25 0"/>
<feBlend mode="normal" in2="BackgroundImageFix" result="effect1_dropShadow_2970_9093"/>
<feBlend mode="normal" in="SourceGraphic" in2="effect1_dropShadow_2970_9093" result="shape"/>
</filter>
<linearGradient id="paint0_linear_2970_9093" x1="0" y1="0" x2="0" y2="120" gradientUnits="userSpaceOnUse">
<stop stop-color="#FBE300"/>
<stop offset="1" stop-color="#F5C200"/>
</linearGradient>
<clipPath id="clip0_2970_9093">
<rect width="98.6667" height="98.6667" fill="white" transform="translate(10.6666 10.6666)"/>
</clipPath>
</defs>
</svg>
