<svg width="120" height="120" viewBox="0 0 120 120" fill="none" xmlns="http://www.w3.org/2000/svg">
<rect width="120" height="120" rx="27.9365" fill="url(#paint0_linear_2904_9014)"/>
<g clip-path="url(#clip0_2904_9014)">
<g filter="url(#filter0_d_2904_9014)">
<path fill-rule="evenodd" clip-rule="evenodd" d="M98.6668 29.7195H21.3335V59.9278C30.0786 59.9311 38.8236 59.9339 47.5687 59.9355L50.6954 59.9361L51.0099 59.9361C54.3788 59.9368 57.7477 59.9378 61.1166 59.9392C64.5836 59.9406 68.0507 59.9416 71.5178 59.942C73.655 59.9422 75.7922 59.9426 77.9294 59.9438C79.4076 59.9446 80.8858 59.9451 82.3639 59.945L82.6392 59.945C83.3998 59.9449 84.1605 59.9448 84.9212 59.9453C85.713 59.9461 86.5048 59.9467 87.2967 59.9464L88.1568 59.946L88.1734 59.946C88.5666 59.9467 88.9598 59.9473 89.353 59.9469L89.709 59.9464C90.0784 59.9477 90.4434 59.9427 90.8127 59.9278C90.8627 59.8778 90.8961 59.8444 90.9268 59.8085C90.9887 59.7361 91.0393 59.654 91.1921 59.406C91.3448 59.1497 91.4975 58.8934 91.6504 58.6373L91.8207 58.3522L91.8707 58.2684C92.6768 56.9163 93.4829 55.5642 94.3102 54.2248C95.7585 51.8873 96.7253 50.3268 97.3708 48.6431C98.6668 45.2622 98.6668 41.3843 98.6668 29.7195ZM25.8647 55.2455V34.4018H94.1356V45.2768L94.1091 45.3209C92.8508 47.418 91.593 49.5145 90.3501 51.6205C90.1702 51.9261 89.9902 52.2315 89.8096 52.5367L89.6368 52.8289L89.3305 53.3481C89.2173 53.5255 89.1073 53.705 89.0002 53.8862C88.8387 54.2731 88.6713 54.6033 88.4351 54.9509C87.8804 55.2112 87.597 55.3441 87.299 55.4041C86.9879 55.4667 86.6608 55.4498 85.9922 55.4153C85.7422 55.411 85.4921 55.4093 85.2421 55.4099C84.5516 55.4145 83.8614 55.4142 83.1709 55.4076C82.4164 55.4003 81.662 55.3989 80.9075 55.3998C79.6008 55.4016 78.2942 55.3994 76.9875 55.3922C75.0806 55.3812 73.1738 55.3753 71.267 55.3734C68.178 55.3707 65.089 55.3631 62.0001 55.3504C58.9885 55.3379 55.977 55.3272 52.9654 55.3213L52.4021 55.3202L49.6014 55.3149C41.6891 55.3006 33.777 55.2755 25.8647 55.2455ZM85.9794 40.8966H31.3023V49.3549H35.8336V45.5789H81.4482V49.3549H85.9794V40.8966Z" fill="white"/>
</g>
<g filter="url(#filter1_d_2904_9014)">
<path d="M39.5237 88.2804V71.3702H46.0159C47.7034 71.3702 49.1448 71.6984 50.3401 72.3546C51.5432 73.0031 52.4612 73.9484 53.094 75.1906C53.7346 76.4327 54.0549 77.9445 54.0549 79.7257V79.7491C54.0549 81.546 53.7346 83.0812 53.094 84.3546C52.4612 85.6281 51.5471 86.6007 50.3518 87.2726C49.1565 87.9445 47.7112 88.2804 46.0159 88.2804H39.5237ZM43.0627 85.3624H45.5706C46.6252 85.3624 47.512 85.1515 48.2307 84.7296C48.9573 84.2999 49.5081 83.671 49.8831 82.8429C50.2581 82.0148 50.4456 80.9913 50.4456 79.7726V79.7491C50.4456 78.5773 50.2542 77.5851 49.8713 76.7726C49.4885 75.9601 48.9338 75.3429 48.2073 74.921C47.4807 74.4991 46.6018 74.2882 45.5706 74.2882H43.0627V85.3624ZM58.3088 82.9484V80.1827H62.5042C63.5198 80.1827 64.3088 79.9249 64.8713 79.4093C65.4338 78.8859 65.7151 78.1437 65.7151 77.1827V77.1593C65.7151 76.1984 65.4338 75.4601 64.8713 74.9445C64.3088 74.4288 63.5198 74.171 62.5042 74.171H58.3088V71.3702H63.3596C64.5549 71.3702 65.594 71.6124 66.4768 72.0968C67.3674 72.5734 68.0588 73.2452 68.551 74.1124C69.051 74.9796 69.301 75.9913 69.301 77.1476V77.171C69.301 78.3351 69.051 79.3507 68.551 80.2179C68.0588 81.0851 67.3674 81.757 66.4768 82.2335C65.594 82.7101 64.5549 82.9484 63.3596 82.9484H58.3088ZM56.5393 88.2804V71.3702H60.0784V88.2804H56.5393ZM75.5823 88.2804V74.6398H75.4885L71.1995 77.5577V74.4054L75.5706 71.3702H79.0979V88.2804H75.5823Z" fill="white"/>
</g>
</g>
<defs>
<filter id="filter0_d_2904_9014" x="17.3335" y="25.7195" width="93.3333" height="46.2275" filterUnits="userSpaceOnUse" color-interpolation-filters="sRGB">
<feFlood flood-opacity="0" result="BackgroundImageFix"/>
<feColorMatrix in="SourceAlpha" type="matrix" values="0 0 0 0 0 0 0 0 0 0 0 0 0 0 0 0 0 0 127 0" result="hardAlpha"/>
<feOffset dx="4" dy="4"/>
<feGaussianBlur stdDeviation="4"/>
<feComposite in2="hardAlpha" operator="out"/>
<feColorMatrix type="matrix" values="0 0 0 0 0 0 0 0 0 0 0 0 0 0 0 0 0 0 0.25 0"/>
<feBlend mode="normal" in2="BackgroundImageFix" result="effect1_dropShadow_2904_9014"/>
<feBlend mode="normal" in="SourceGraphic" in2="effect1_dropShadow_2904_9014" result="shape"/>
</filter>
<filter id="filter1_d_2904_9014" x="35.5237" y="67.3702" width="55.5742" height="32.9102" filterUnits="userSpaceOnUse" color-interpolation-filters="sRGB">
<feFlood flood-opacity="0" result="BackgroundImageFix"/>
<feColorMatrix in="SourceAlpha" type="matrix" values="0 0 0 0 0 0 0 0 0 0 0 0 0 0 0 0 0 0 127 0" result="hardAlpha"/>
<feOffset dx="4" dy="4"/>
<feGaussianBlur stdDeviation="4"/>
<feComposite in2="hardAlpha" operator="out"/>
<feColorMatrix type="matrix" values="0 0 0 0 0 0 0 0 0 0 0 0 0 0 0 0 0 0 0.25 0"/>
<feBlend mode="normal" in2="BackgroundImageFix" result="effect1_dropShadow_2904_9014"/>
<feBlend mode="normal" in="SourceGraphic" in2="effect1_dropShadow_2904_9014" result="shape"/>
</filter>
<linearGradient id="paint0_linear_2904_9014" x1="60" y1="0" x2="60" y2="120" gradientUnits="userSpaceOnUse">
<stop stop-color="#C99A5E"/>
<stop offset="1" stop-color="#8A5B1F"/>
</linearGradient>
<clipPath id="clip0_2904_9014">
<rect width="98.6667" height="98.6667" fill="white" transform="translate(10.6667 10.6666)"/>
</clipPath>
</defs>
</svg>
