<svg width="120" height="120" viewBox="0 0 120 120" fill="none" xmlns="http://www.w3.org/2000/svg">
<rect width="120" height="120" rx="26.6667" fill="url(#paint0_linear_2970_9069)"/>
<g filter="url(#filter0_d_2970_9069)">
<path d="M76.3463 25.7887C77.4564 25.7887 78.1907 26.2716 78.6744 27.3073C79.7306 29.5721 80.8198 31.819 81.8707 34.0875C82.0603 34.4945 82.2678 34.653 82.7076 34.6403C84.0997 34.6071 85.4923 34.6401 86.8756 34.6217C87.2117 34.6065 87.547 34.6673 87.859 34.8004C88.171 34.9336 88.4529 35.1354 88.6852 35.3932C89.293 36.0529 89.9088 36.7019 90.5328 37.3395C90.7768 37.5846 90.9684 37.8827 91.0953 38.2125C91.2222 38.5423 91.2819 38.8967 91.2692 39.2526C91.2599 47.2076 91.2599 55.1643 91.2692 63.1217C91.269 64.6565 90.4161 65.5387 88.9459 65.5387L59.9606 65.5446H31.2506C29.5106 65.5446 28.7399 64.7427 28.7399 62.9127C28.7399 55.0944 28.7361 47.276 28.7291 39.4576C28.7291 38.5362 28.9814 37.8113 29.6217 37.194C30.1994 36.6411 30.7456 36.044 31.2867 35.4469C31.5208 35.176 31.8079 34.9622 32.1276 34.8199C32.4471 34.6778 32.7919 34.6111 33.1383 34.6237C34.5476 34.6458 35.9587 34.6237 37.3698 34.6403C37.5281 34.6608 37.6886 34.6224 37.8239 34.5328C37.9589 34.4433 38.0611 34.3077 38.1129 34.1481C39.1761 31.863 40.2772 29.5959 41.3317 27.3053C41.8154 26.2549 42.5501 25.7869 43.6549 25.7887C54.5532 25.8034 65.4504 25.8034 76.3463 25.7887ZM74.817 30.1989C64.943 30.2161 55.0674 30.2161 45.191 30.1989C44.7598 30.1989 44.5425 30.3316 44.3512 30.7516C43.288 33.0625 42.1896 35.359 41.109 37.6608C40.6688 38.6003 39.9713 39.0587 38.9762 39.0514C37.4346 39.0366 35.893 39.0514 34.3531 39.0514C34.1618 39.0415 33.9705 39.0745 33.7916 39.1471C33.6127 39.2197 33.4493 39.3305 33.3131 39.4733C33.177 39.616 33.0709 39.7875 33.0006 39.9762C32.9303 40.1649 32.8975 40.3673 32.9049 40.5699V60.4362C32.9049 60.6555 32.9228 60.8767 32.9332 61.1071L87.0612 61.1051C87.0794 61.0165 87.093 60.9269 87.1002 60.8365V40.3512C87.1002 39.7523 86.4174 39.0606 85.8414 39.0514C84.2755 39.0514 82.7094 39.0274 81.1539 39.0514C80.0474 39.0716 79.3185 38.5705 78.8365 37.5201C77.8065 35.2682 76.7242 33.0438 75.6871 30.7955C75.4923 30.3736 75.2815 30.1989 74.817 30.1989ZM80.5778 43.4674C82.1298 43.4674 82.9325 44.3265 82.9342 45.985V54.2614C82.934 55.8588 82.1108 56.7135 80.5885 56.7135H39.5045C37.8659 56.7133 37.069 55.8745 37.069 54.1334V45.9957C37.069 44.3502 37.8909 43.4693 39.4254 43.4674H80.5778ZM57.9489 52.2653H62.0416L62.0377 47.9362H57.9489V52.2653ZM47.5094 52.2526H51.6158V47.9401H47.5094V52.2526ZM68.3893 52.2428H72.4606V47.8922H68.3893V52.2428ZM47.3746 34.6403C47.7224 34.6163 48.0708 34.6402 48.4186 34.6403L60.0651 34.6324H72.3649C73.9656 34.6324 74.9941 36.1069 74.4635 37.6051C74.3187 38.0306 74.0525 38.3987 73.7018 38.6569C73.3512 38.9148 72.9333 39.051 72.5065 39.0465C71.4 39.0631 70.2946 39.0465 69.1881 39.0465H47.9723C47.6906 39.0601 47.4073 39.0475 47.1276 39.0094C46.6363 38.9018 46.1974 38.6109 45.8922 38.1891C45.587 37.7671 45.4355 37.2421 45.4655 36.7115C45.4955 36.181 45.7058 35.6798 46.0563 35.2994C46.4068 34.9192 46.8747 34.685 47.3746 34.6403Z" fill="white"/>
<path d="M17.5234 93.2112V76.301H21.0625V83.1682H28.6797V76.301H32.2188V93.2112H28.6797V86.0862H21.0625V93.2112H17.5234ZM36.4656 93.2112V76.301H42.9578C44.6453 76.301 46.0867 76.6292 47.282 77.2854C48.4852 77.9338 49.4031 78.8792 50.0359 80.1213C50.6766 81.3635 50.9969 82.8752 50.9969 84.6565V84.6799C50.9969 86.4768 50.6766 88.012 50.0359 89.2854C49.4031 90.5588 48.4891 91.5315 47.2938 92.2034C46.0984 92.8752 44.6531 93.2112 42.9578 93.2112H36.4656ZM40.0047 90.2932H42.5125C43.5672 90.2932 44.4539 90.0823 45.1727 89.6604C45.8992 89.2307 46.45 88.6018 46.825 87.7737C47.2 86.9456 47.3875 85.9221 47.3875 84.7034V84.6799C47.3875 83.5081 47.1961 82.5159 46.8133 81.7034C46.4305 80.8909 45.8758 80.2737 45.1492 79.8518C44.4227 79.4299 43.5438 79.219 42.5125 79.219H40.0047V90.2932ZM54.6813 93.2112V76.301H58.7594L63.5406 88.5002H63.6461L68.4156 76.301H72.4938V93.2112H69.3414V81.762H67.6891L71.2047 76.7698L64.7008 93.2112H62.4742L55.982 76.7698L59.4859 81.762H57.8336V93.2112H54.6813ZM76.7406 93.2112V76.301H80.2797V93.2112H76.7406ZM84.2922 93.2112V90.7971L90.175 85.2542C90.9172 84.551 91.4797 83.969 91.8625 83.5081C92.2531 83.0471 92.5188 82.637 92.6594 82.2776C92.8 81.9182 92.8703 81.5432 92.8703 81.1526V81.1174C92.8703 80.6565 92.7609 80.2463 92.5422 79.887C92.3313 79.5276 92.0305 79.2463 91.6398 79.0432C91.257 78.8401 90.8117 78.7385 90.3039 78.7385C89.7336 78.7385 89.2297 78.8557 88.7922 79.0901C88.3547 79.3167 88.0109 79.6331 87.7609 80.0393C87.5188 80.4377 87.3898 80.8948 87.3742 81.4104V81.5042H84.093V81.4104C84.093 80.3479 84.3586 79.4104 84.8898 78.5979C85.4289 77.7776 86.1672 77.137 87.1047 76.676C88.05 76.2151 89.1203 75.9846 90.3156 75.9846C91.5031 75.9846 92.5461 76.1956 93.4445 76.6174C94.3508 77.0315 95.0578 77.6096 95.5656 78.3518C96.0734 79.0862 96.3273 79.9377 96.3273 80.9065V80.9299C96.3273 81.6018 96.2023 82.2346 95.9523 82.8284C95.7102 83.4143 95.3039 84.0393 94.7336 84.7034C94.1633 85.3596 93.3859 86.1409 92.4016 87.0471L87.6555 91.3948L88.9328 89.1682V91.3948L87.6672 90.387H96.5617V93.2112H84.2922Z" fill="white"/>
</g>
<defs>
<filter id="filter0_d_2970_9069" x="12.6529" y="22.4416" width="101.388" height="81.8109" filterUnits="userSpaceOnUse" color-interpolation-filters="sRGB">
<feFlood flood-opacity="0" result="BackgroundImageFix"/>
<feColorMatrix in="SourceAlpha" type="matrix" values="0 0 0 0 0 0 0 0 0 0 0 0 0 0 0 0 0 0 127 0" result="hardAlpha"/>
<feOffset dx="3.34708" dy="3.34708"/>
<feGaussianBlur stdDeviation="3.34708"/>
<feComposite in2="hardAlpha" operator="out"/>
<feColorMatrix type="matrix" values="0 0 0 0 0 0 0 0 0 0 0 0 0 0 0 0 0 0 0.25 0"/>
<feBlend mode="normal" in2="BackgroundImageFix" result="effect1_dropShadow_2970_9069"/>
<feBlend mode="normal" in="SourceGraphic" in2="effect1_dropShadow_2970_9069" result="shape"/>
</filter>
<linearGradient id="paint0_linear_2970_9069" x1="0" y1="0" x2="0" y2="120" gradientUnits="userSpaceOnUse">
<stop stop-color="#0FB7FA"/>
<stop offset="1" stop-color="#0072FB"/>
</linearGradient>
</defs>
</svg>
