<svg width="120" height="120" viewBox="0 0 120 120" fill="none" xmlns="http://www.w3.org/2000/svg">
<rect width="120" height="120" rx="26.6667" fill="url(#paint0_linear_2970_9110)"/>
<g filter="url(#filter0_d_2970_9110)">
<path d="M69.3995 85.9409C69.9467 85.9227 70.494 85.905 71.0577 85.8862C72.1269 85.865 72.1271 85.8649 73.2179 85.8433C74.2809 85.816 74.281 85.8164 75.3654 85.7886C77.2317 85.9416 77.2324 85.9408 78.799 87.5073V92.2075H41.2013C41.2013 87.5079 41.2011 87.5075 42.7677 85.9409C44.6341 85.7879 44.6345 85.7882 46.7823 85.8433C47.8514 85.8645 47.8517 85.8646 48.9425 85.8862C49.4897 85.9044 50.0369 85.9222 50.6007 85.9409V82.8081H69.3995V85.9409ZM23.8702 30.7544C24.0571 27.012 26.0442 27.8847 29.3146 27.8726C29.9696 27.8741 30.6251 27.8758 31.2999 27.8774C32.3295 27.8754 32.3299 27.8756 33.38 27.8735C35.6605 27.8701 37.9413 27.8719 40.2218 27.8745C41.7993 27.874 43.3777 27.8735 44.9552 27.8726C48.2658 27.8714 51.5763 27.8728 54.8868 27.8765C59.1409 27.8809 63.3954 27.8782 67.6495 27.8735C70.9083 27.8707 74.1671 27.8715 77.4259 27.8735C78.9949 27.8741 80.564 27.8734 82.1329 27.8716C84.3217 27.8696 86.5106 27.8731 88.6993 27.8774C89.6819 27.8751 89.6824 27.875 90.6847 27.8726C95.1575 27.8892 95.1577 27.8895 96.0304 28.7622C96.1082 30.3199 96.1309 31.8803 96.132 33.4399C96.1344 34.441 96.1372 35.4427 96.1398 36.4741C96.1384 37.575 96.1367 38.6759 96.1349 39.7769C96.1354 40.8976 96.1359 42.0184 96.1368 43.1392C96.138 45.4912 96.1366 47.8437 96.1329 50.1958C96.1285 53.217 96.1312 56.2381 96.1359 59.2593C96.1387 61.5748 96.1379 63.8911 96.1359 66.2065C96.1353 67.3207 96.136 68.4352 96.1378 69.5493C96.1398 71.104 96.1358 72.6587 96.132 74.2134C96.1313 75.0998 96.1306 75.9866 96.13 76.8999C96.0306 78.8917 96.0304 78.892 95.2472 79.6753C93.0584 79.754 90.8885 79.7812 88.6993 79.7759C87.6701 79.7779 87.6696 79.7787 86.6193 79.7808C84.3387 79.7842 82.058 79.7814 79.7775 79.7788C78.2 79.7793 76.6225 79.7808 75.045 79.7817C71.7343 79.7829 68.4232 79.7805 65.1124 79.7769C60.8585 79.7724 56.6046 79.7751 52.3507 79.7798C49.092 79.7826 45.8331 79.7818 42.5743 79.7798C41.0053 79.7793 39.4354 79.7799 37.8663 79.7817C35.6776 79.7837 33.4886 79.7803 31.2999 79.7759C30.6449 79.7775 29.9894 79.7791 29.3146 79.7808C24.8421 79.7641 24.8416 79.7648 23.9689 78.8921C23.8911 77.3343 23.8694 75.7732 23.8683 74.2134C23.8658 73.2124 23.863 72.2115 23.8605 71.1802C23.8619 70.0791 23.8636 68.9775 23.8654 67.8765C23.8648 66.7557 23.8644 65.6349 23.8634 64.5142C23.8622 62.1621 23.8637 59.8096 23.8673 57.4575C23.8718 54.4364 23.8691 51.4152 23.8644 48.394C23.8616 46.0786 23.8623 43.7632 23.8644 41.4478C23.8649 40.3335 23.8642 39.2192 23.8624 38.105C23.8604 36.5502 23.8645 34.9948 23.8683 33.4399C23.8689 32.5537 23.8696 31.6675 23.8702 30.7544ZM85.0646 74.9751H88.1984V71.8423H85.0646V74.9751ZM27.1027 67.1421H92.8976V31.1118H27.1027V67.1421Z" fill="white"/>
</g>
<defs>
<filter id="filter0_d_2970_9110" x="19.8605" y="23.7925" width="88.2793" height="80.415" filterUnits="userSpaceOnUse" color-interpolation-filters="sRGB">
<feFlood flood-opacity="0" result="BackgroundImageFix"/>
<feColorMatrix in="SourceAlpha" type="matrix" values="0 0 0 0 0 0 0 0 0 0 0 0 0 0 0 0 0 0 127 0" result="hardAlpha"/>
<feOffset dx="4" dy="4"/>
<feGaussianBlur stdDeviation="4"/>
<feComposite in2="hardAlpha" operator="out"/>
<feColorMatrix type="matrix" values="0 0 0 0 0 0 0 0 0 0 0 0 0 0 0 0 0 0 0.25 0"/>
<feBlend mode="normal" in2="BackgroundImageFix" result="effect1_dropShadow_2970_9110"/>
<feBlend mode="normal" in="SourceGraphic" in2="effect1_dropShadow_2970_9110" result="shape"/>
</filter>
<linearGradient id="paint0_linear_2970_9110" x1="0" y1="0" x2="0" y2="120" gradientUnits="userSpaceOnUse">
<stop stop-color="#9D82FF"/>
<stop offset="1" stop-color="#5856D6"/>
</linearGradient>
</defs>
</svg>
