<svg width="120" height="120" viewBox="0 0 120 120" fill="none" xmlns="http://www.w3.org/2000/svg">
<rect width="120" height="120" rx="27.9365" fill="url(#paint0_linear_2970_9102)"/>
<g filter="url(#filter0_d_2970_9102)">
<path d="M87.4116 31.8915C89.3119 31.9139 90.7168 32.524 92.2944 33.5555C94.4619 35.8218 94.4116 38.3307 94.3931 41.286C94.3948 41.7403 94.3972 42.195 94.3999 42.6493C94.4056 43.8774 94.4029 45.1057 94.3989 46.3339C94.3957 47.6224 94.3989 48.9115 94.4009 50.2001C94.4031 52.3637 94.4 54.5276 94.394 56.6913C94.3872 59.1886 94.3901 61.6862 94.397 64.1835C94.4027 66.3319 94.4032 68.4803 94.3999 70.6288C94.398 71.91 94.3977 73.1913 94.4019 74.4725C94.4055 75.6775 94.4032 76.8828 94.396 78.0878C94.3944 78.5284 94.3942 78.9694 94.397 79.41C94.4116 81.9746 94.3736 84.2458 92.5503 86.245C90.9428 87.8106 89.0482 88.1353 86.8931 88.1073C86.6686 88.1074 86.4437 88.1072 86.2124 88.1073C85.4767 88.1068 84.7411 88.1005 84.0054 88.0946C83.4927 88.0932 82.98 88.0924 82.4673 88.0917C81.1226 88.0888 79.7777 88.0814 78.4331 88.0731C77.059 88.0654 75.6842 88.0622 74.3101 88.0585C71.6176 88.0504 68.9253 88.0368 66.2329 88.0214V81.7723H87.9819V38.2733H31.9839V47.5233H25.7339C25.7051 46.038 25.6805 44.5536 25.6655 43.0682C25.6593 42.564 25.651 42.0597 25.6401 41.5555C25.52 35.8387 25.5198 35.838 27.4233 33.8046C29.0472 32.2384 30.7348 31.9129 32.9097 31.9276C33.1494 31.9263 33.3892 31.9241 33.6362 31.9227C34.4373 31.9192 35.2384 31.9209 36.0396 31.9227C36.6149 31.9213 37.1907 31.9199 37.7661 31.9178C39.3275 31.9134 40.8893 31.9135 42.4507 31.9149C43.7544 31.9157 45.0581 31.9145 46.3618 31.913C49.6143 31.9093 52.8672 31.9099 56.1196 31.913C58.9412 31.9154 61.7629 31.9121 64.5845 31.9061C67.4847 31.9 70.3854 31.8977 73.2856 31.8993C74.9128 31.9001 76.5404 31.8997 78.1675 31.8954C79.6978 31.8915 81.228 31.8926 82.7583 31.8973C83.3192 31.8983 83.8801 31.897 84.4409 31.8944C85.2081 31.8911 85.9755 31.8939 86.7427 31.8983C86.9634 31.8959 87.1842 31.894 87.4116 31.8915ZM25.7339 78.7723C28.3185 78.7723 30.2155 79.3251 32.2153 80.9911C34.2671 83.0931 34.9838 85.1154 34.9839 88.0214H25.7339V78.7723ZM25.7339 66.2723C32.0198 66.2723 37.274 68.5835 41.7339 73.0223C45.6887 77.2202 47.4838 82.304 47.4839 88.0214H41.2339L40.9839 85.8964C40.4064 81.8731 38.4343 78.2136 35.187 75.7098C32.1215 73.6341 29.3538 72.9911 25.7339 72.5223V66.2723ZM25.7339 53.7733C34.452 53.498 42.8811 57.1082 49.2661 62.953C53.8366 67.2782 56.7163 72.3617 58.7329 78.2723L58.9741 78.9589C59.877 81.8383 59.9829 85.0269 59.9829 88.0214H53.7329C53.635 87.0729 53.5369 86.1245 53.436 85.1473C52.5968 77.8729 49.2562 71.1988 43.5649 66.4657C40.8755 64.4136 38.1719 62.9142 34.9839 61.7733C34.8045 61.7074 34.6248 61.641 34.4399 61.5731C33.0928 61.0973 31.7712 60.8198 30.3589 60.6171L29.7603 60.5253C28.4194 60.3234 27.0841 60.1733 25.7339 60.0233V53.7733Z" fill="white"/>
</g>
<defs>
<filter id="filter0_d_2970_9102" x="21.5967" y="27.8915" width="84.8069" height="72.2174" filterUnits="userSpaceOnUse" color-interpolation-filters="sRGB">
<feFlood flood-opacity="0" result="BackgroundImageFix"/>
<feColorMatrix in="SourceAlpha" type="matrix" values="0 0 0 0 0 0 0 0 0 0 0 0 0 0 0 0 0 0 127 0" result="hardAlpha"/>
<feOffset dx="4" dy="4"/>
<feGaussianBlur stdDeviation="4"/>
<feComposite in2="hardAlpha" operator="out"/>
<feColorMatrix type="matrix" values="0 0 0 0 0 0 0 0 0 0 0 0 0 0 0 0 0 0 0.25 0"/>
<feBlend mode="normal" in2="BackgroundImageFix" result="effect1_dropShadow_2970_9102"/>
<feBlend mode="normal" in="SourceGraphic" in2="effect1_dropShadow_2970_9102" result="shape"/>
</filter>
<linearGradient id="paint0_linear_2970_9102" x1="0" y1="0" x2="0" y2="120" gradientUnits="userSpaceOnUse">
<stop stop-color="#78C9FF"/>
<stop offset="1" stop-color="#2491E4"/>
</linearGradient>
</defs>
</svg>
