<svg width="120" height="120" viewBox="0 0 120 120" fill="none" xmlns="http://www.w3.org/2000/svg">
<rect width="120" height="120" rx="27.9365" fill="url(#paint0_linear_2904_9006)"/>
<g clip-path="url(#clip0_2904_9006)">
<g filter="url(#filter0_d_2904_9006)">
<path fill-rule="evenodd" clip-rule="evenodd" d="M98.6666 29.7195H21.3333V59.9278C30.0783 59.9311 38.8234 59.9339 47.5685 59.9355L50.6952 59.9361L51.0097 59.9361C54.3785 59.9368 57.7474 59.9378 61.1163 59.9392C64.5834 59.9406 68.0505 59.9416 71.5176 59.942C73.6548 59.9422 75.792 59.9426 77.9292 59.9438C79.4074 59.9446 80.8855 59.9451 82.3637 59.945L82.6389 59.945C83.3996 59.9449 84.1603 59.9448 84.9209 59.9453C85.7127 59.9461 86.5046 59.9467 87.2964 59.9464L88.1566 59.946L88.1731 59.946C88.5663 59.9467 88.9595 59.9473 89.3528 59.9469L89.7088 59.9464C90.0781 59.9477 90.4431 59.9427 90.8124 59.9278C90.8624 59.8778 90.8959 59.8444 90.9266 59.8085C90.9885 59.7361 91.0391 59.654 91.1918 59.406C91.3445 59.1497 91.4972 58.8934 91.6502 58.6373L91.8205 58.3522L91.8704 58.2684C92.6766 56.9163 93.4827 55.5642 94.31 54.2248C95.7583 51.8873 96.7251 50.3268 97.3705 48.6431C98.6666 45.2622 98.6666 41.3843 98.6666 29.7195ZM25.8645 55.2455V34.4018H94.1353V45.2768L94.1088 45.3209C92.8506 47.418 91.5927 49.5145 90.3499 51.6205C90.1699 51.9261 89.9899 52.2315 89.8094 52.5367L89.6365 52.8289L89.3303 53.3481C89.2171 53.5255 89.1071 53.705 88.9999 53.8862C88.8385 54.2731 88.6711 54.6033 88.4349 54.9509C87.8801 55.2112 87.5968 55.3441 87.2987 55.4041C86.9876 55.4667 86.6605 55.4498 85.992 55.4153C85.742 55.411 85.4919 55.4093 85.2418 55.4099C84.5513 55.4145 83.8611 55.4142 83.1706 55.4076C82.4161 55.4003 81.6618 55.3989 80.9073 55.3998C79.6006 55.4016 78.2939 55.3994 76.9873 55.3922C75.0804 55.3812 73.1736 55.3753 71.2667 55.3734C68.1777 55.3707 65.0888 55.3631 61.9998 55.3504C58.9883 55.3379 55.9767 55.3272 52.9651 55.3213L52.4019 55.3202L49.6011 55.3149C41.6889 55.3006 33.7767 55.2755 25.8645 55.2455ZM85.979 40.8966H31.302V49.3549H35.8332V45.5789H81.4478V49.3549H85.979V40.8966Z" fill="white"/>
</g>
<g filter="url(#filter1_d_2904_9006)">
<path d="M38.0233 88.2804V71.3702H44.5155C46.203 71.3702 47.6444 71.6984 48.8397 72.3546C50.0428 73.0031 50.9608 73.9484 51.5936 75.1906C52.2343 76.4327 52.5546 77.9445 52.5546 79.7257V79.7491C52.5546 81.546 52.2343 83.0812 51.5936 84.3546C50.9608 85.6281 50.0468 86.6007 48.8514 87.2726C47.6561 87.9445 46.2108 88.2804 44.5155 88.2804H38.0233ZM41.5624 85.3624H44.0702C45.1249 85.3624 46.0116 85.1515 46.7303 84.7296C47.4569 84.2999 48.0077 83.671 48.3827 82.8429C48.7577 82.0148 48.9452 80.9913 48.9452 79.7726V79.7491C48.9452 78.5773 48.7538 77.5851 48.371 76.7726C47.9882 75.9601 47.4335 75.3429 46.7069 74.921C45.9803 74.4991 45.1014 74.2882 44.0702 74.2882H41.5624V85.3624ZM56.8085 82.9484V80.1827H61.0038C62.0194 80.1827 62.8085 79.9249 63.371 79.4093C63.9335 78.8859 64.2147 78.1437 64.2147 77.1827V77.1593C64.2147 76.1984 63.9335 75.4601 63.371 74.9445C62.8085 74.4288 62.0194 74.171 61.0038 74.171H56.8085V71.3702H61.8593C63.0546 71.3702 64.0936 71.6124 64.9764 72.0968C65.8671 72.5734 66.5585 73.2452 67.0507 74.1124C67.5507 74.9796 67.8007 75.9913 67.8007 77.1476V77.171C67.8007 78.3351 67.5507 79.3507 67.0507 80.2179C66.5585 81.0851 65.8671 81.757 64.9764 82.2335C64.0936 82.7101 63.0546 82.9484 61.8593 82.9484H56.8085ZM55.0389 88.2804V71.3702H58.578V88.2804H55.0389ZM69.8749 88.2804V85.8663L75.7577 80.3234C76.4999 79.6202 77.0624 79.0382 77.4452 78.5773C77.8358 78.1163 78.1014 77.7062 78.2421 77.3468C78.3827 76.9874 78.453 76.6124 78.453 76.2218V76.1866C78.453 75.7257 78.3436 75.3156 78.1249 74.9562C77.9139 74.5968 77.6132 74.3156 77.2225 74.1124C76.8397 73.9093 76.3944 73.8077 75.8866 73.8077C75.3163 73.8077 74.8124 73.9249 74.3749 74.1593C73.9374 74.3859 73.5936 74.7023 73.3436 75.1085C73.1014 75.507 72.9725 75.964 72.9569 76.4796V76.5734H69.6757V76.4796C69.6757 75.4171 69.9413 74.4796 70.4725 73.6671C71.0116 72.8468 71.7499 72.2062 72.6874 71.7452C73.6327 71.2843 74.703 71.0538 75.8983 71.0538C77.0858 71.0538 78.1288 71.2648 79.0272 71.6866C79.9335 72.1007 80.6405 72.6788 81.1483 73.421C81.6561 74.1554 81.91 75.007 81.91 75.9757V75.9991C81.91 76.671 81.785 77.3038 81.535 77.8976C81.2928 78.4835 80.8866 79.1085 80.3163 79.7726C79.746 80.4288 78.9686 81.2101 77.9843 82.1163L73.2382 86.464L74.5155 84.2374V86.464L73.2499 85.4562H82.1444V88.2804H69.8749Z" fill="white"/>
</g>
</g>
<defs>
<filter id="filter0_d_2904_9006" x="17.3333" y="25.7195" width="93.3334" height="46.2275" filterUnits="userSpaceOnUse" color-interpolation-filters="sRGB">
<feFlood flood-opacity="0" result="BackgroundImageFix"/>
<feColorMatrix in="SourceAlpha" type="matrix" values="0 0 0 0 0 0 0 0 0 0 0 0 0 0 0 0 0 0 127 0" result="hardAlpha"/>
<feOffset dx="4" dy="4"/>
<feGaussianBlur stdDeviation="4"/>
<feComposite in2="hardAlpha" operator="out"/>
<feColorMatrix type="matrix" values="0 0 0 0 0 0 0 0 0 0 0 0 0 0 0 0 0 0 0.25 0"/>
<feBlend mode="normal" in2="BackgroundImageFix" result="effect1_dropShadow_2904_9006"/>
<feBlend mode="normal" in="SourceGraphic" in2="effect1_dropShadow_2904_9006" result="shape"/>
</filter>
<filter id="filter1_d_2904_9006" x="34.0233" y="67.0538" width="60.1211" height="33.2266" filterUnits="userSpaceOnUse" color-interpolation-filters="sRGB">
<feFlood flood-opacity="0" result="BackgroundImageFix"/>
<feColorMatrix in="SourceAlpha" type="matrix" values="0 0 0 0 0 0 0 0 0 0 0 0 0 0 0 0 0 0 127 0" result="hardAlpha"/>
<feOffset dx="4" dy="4"/>
<feGaussianBlur stdDeviation="4"/>
<feComposite in2="hardAlpha" operator="out"/>
<feColorMatrix type="matrix" values="0 0 0 0 0 0 0 0 0 0 0 0 0 0 0 0 0 0 0.25 0"/>
<feBlend mode="normal" in2="BackgroundImageFix" result="effect1_dropShadow_2904_9006"/>
<feBlend mode="normal" in="SourceGraphic" in2="effect1_dropShadow_2904_9006" result="shape"/>
</filter>
<linearGradient id="paint0_linear_2904_9006" x1="0" y1="0" x2="0" y2="120" gradientUnits="userSpaceOnUse">
<stop stop-color="#82C158"/>
<stop offset="1" stop-color="#679846"/>
</linearGradient>
<clipPath id="clip0_2904_9006">
<rect width="98.6667" height="98.6667" fill="white" transform="translate(10.6666 10.6666)"/>
</clipPath>
</defs>
</svg>
