<svg width="120" height="120" viewBox="0 0 120 120" fill="none" xmlns="http://www.w3.org/2000/svg">
<rect width="120" height="120" rx="26.6667" fill="url(#paint0_linear_2970_9054)"/>
<g filter="url(#filter0_d_2970_9054)">
<path d="M76.3464 25.7887C77.4565 25.7887 78.1908 26.2716 78.6746 27.3073C79.7308 29.5721 80.8199 31.819 81.8708 34.0875C82.0604 34.4945 82.2679 34.653 82.7078 34.6403C84.0998 34.6071 85.4924 34.6401 86.8757 34.6217C87.2118 34.6065 87.5471 34.6673 87.8591 34.8004C88.1712 34.9336 88.4531 35.1354 88.6853 35.3932C89.2931 36.0529 89.9089 36.7019 90.533 37.3395C90.7769 37.5846 90.9685 37.8827 91.0955 38.2125C91.2223 38.5423 91.282 38.8967 91.2693 39.2526C91.26 47.2076 91.26 55.1643 91.2693 63.1217C91.2691 64.6565 90.4162 65.5387 88.946 65.5387L59.9607 65.5446H31.2507C29.5107 65.5446 28.74 64.7427 28.74 62.9127C28.74 55.0944 28.7362 47.276 28.7292 39.4576C28.7292 38.5362 28.9815 37.8113 29.6218 37.194C30.1995 36.6411 30.7457 36.044 31.2869 35.4469C31.5209 35.176 31.8081 34.9622 32.1277 34.8199C32.4472 34.6778 32.7921 34.6111 33.1384 34.6237C34.5477 34.6458 35.9588 34.6237 37.3699 34.6403C37.5282 34.6608 37.6887 34.6224 37.824 34.5328C37.9591 34.4433 38.0612 34.3077 38.113 34.1481C39.1762 31.863 40.2773 29.5959 41.3318 27.3053C41.8155 26.2549 42.5502 25.7869 43.655 25.7887C54.5533 25.8034 65.4505 25.8034 76.3464 25.7887ZM74.8171 30.1989C64.9431 30.2161 55.0675 30.2161 45.1912 30.1989C44.7599 30.1989 44.5427 30.3316 44.3513 30.7516C43.2882 33.0625 42.1897 35.359 41.1091 37.6608C40.6689 38.6003 39.9714 39.0587 38.9763 39.0514C37.4348 39.0366 35.8931 39.0514 34.3533 39.0514C34.162 39.0415 33.9706 39.0745 33.7917 39.1471C33.6128 39.2197 33.4494 39.3305 33.3132 39.4733C33.1772 39.616 33.071 39.7875 33.0007 39.9762C32.9305 40.1649 32.8976 40.3673 32.905 40.5699V60.4362C32.905 60.6555 32.9229 60.8767 32.9333 61.1071L87.0613 61.1051C87.0796 61.0165 87.0931 60.9269 87.1003 60.8365V40.3512C87.1003 39.7523 86.4175 39.0606 85.8416 39.0514C84.2757 39.0514 82.7095 39.0274 81.1541 39.0514C80.0476 39.0716 79.3186 38.5705 78.8367 37.5201C77.8066 35.2682 76.7243 33.0438 75.6873 30.7955C75.4924 30.3736 75.2817 30.1989 74.8171 30.1989ZM80.5779 43.4674C82.1299 43.4674 82.9326 44.3265 82.9343 45.985V54.2614C82.9341 55.8588 82.1109 56.7135 80.5886 56.7135H39.5046C37.8661 56.7133 37.0692 55.8745 37.0691 54.1334V45.9957C37.0691 44.3502 37.891 43.4693 39.4255 43.4674H80.5779ZM57.949 52.2653H62.0417L62.0378 47.9362H57.949V52.2653ZM47.5095 52.2526H51.616V47.9401H47.5095V52.2526ZM68.3894 52.2428H72.4607V47.8922H68.3894V52.2428ZM47.3748 34.6403C47.7225 34.6163 48.0709 34.6402 48.4187 34.6403L60.0652 34.6324H72.365C73.9657 34.6324 74.9942 36.1069 74.4636 37.6051C74.3188 38.0306 74.0526 38.3987 73.7019 38.6569C73.3513 38.9148 72.9334 39.051 72.5066 39.0465C71.4001 39.0631 70.2947 39.0465 69.1882 39.0465H47.9724C47.6907 39.0601 47.4074 39.0475 47.1277 39.0094C46.6364 38.9018 46.1975 38.6109 45.8923 38.1891C45.5871 37.7671 45.4356 37.2421 45.4656 36.7115C45.4956 36.181 45.7059 35.6798 46.0564 35.2994C46.4069 34.9192 46.8748 34.685 47.3748 34.6403Z" fill="white"/>
<path d="M17.5234 93.2112V76.301H21.0625V83.1682H28.6797V76.301H32.2188V93.2112H28.6797V86.0862H21.0625V93.2112H17.5234ZM36.4656 93.2112V76.301H42.9578C44.6453 76.301 46.0867 76.6292 47.282 77.2854C48.4852 77.9338 49.4031 78.8792 50.0359 80.1213C50.6766 81.3635 50.9969 82.8752 50.9969 84.6565V84.6799C50.9969 86.4768 50.6766 88.012 50.0359 89.2854C49.4031 90.5588 48.4891 91.5315 47.2938 92.2034C46.0984 92.8752 44.6531 93.2112 42.9578 93.2112H36.4656ZM40.0047 90.2932H42.5125C43.5672 90.2932 44.4539 90.0823 45.1727 89.6604C45.8992 89.2307 46.45 88.6018 46.825 87.7737C47.2 86.9456 47.3875 85.9221 47.3875 84.7034V84.6799C47.3875 83.5081 47.1961 82.5159 46.8133 81.7034C46.4305 80.8909 45.8758 80.2737 45.1492 79.8518C44.4227 79.4299 43.5438 79.219 42.5125 79.219H40.0047V90.2932ZM54.6813 93.2112V76.301H58.7594L63.5406 88.5002H63.6461L68.4156 76.301H72.4938V93.2112H69.3414V81.762H67.6891L71.2047 76.7698L64.7008 93.2112H62.4742L55.982 76.7698L59.4859 81.762H57.8336V93.2112H54.6813ZM76.7406 93.2112V76.301H80.2797V93.2112H76.7406ZM88.5461 93.2112V79.5706H88.4523L84.1633 82.4885V79.3362L88.5344 76.301H92.0617V93.2112H88.5461Z" fill="white"/>
</g>
<defs>
<filter id="filter0_d_2970_9054" x="12.6529" y="22.4416" width="101.388" height="81.8109" filterUnits="userSpaceOnUse" color-interpolation-filters="sRGB">
<feFlood flood-opacity="0" result="BackgroundImageFix"/>
<feColorMatrix in="SourceAlpha" type="matrix" values="0 0 0 0 0 0 0 0 0 0 0 0 0 0 0 0 0 0 127 0" result="hardAlpha"/>
<feOffset dx="3.34708" dy="3.34708"/>
<feGaussianBlur stdDeviation="3.34708"/>
<feComposite in2="hardAlpha" operator="out"/>
<feColorMatrix type="matrix" values="0 0 0 0 0 0 0 0 0 0 0 0 0 0 0 0 0 0 0.25 0"/>
<feBlend mode="normal" in2="BackgroundImageFix" result="effect1_dropShadow_2970_9054"/>
<feBlend mode="normal" in="SourceGraphic" in2="effect1_dropShadow_2970_9054" result="shape"/>
</filter>
<linearGradient id="paint0_linear_2970_9054" x1="0" y1="0" x2="0" y2="120" gradientUnits="userSpaceOnUse">
<stop stop-color="#FFC700"/>
<stop offset="1" stop-color="#FF9500"/>
</linearGradient>
</defs>
</svg>
