<?xml version="1.0" standalone="no"?>
<!DOCTYPE svg PUBLIC "-//W3C//DTD SVG 1.1//EN" "http://www.w3.org/Graphics/SVG/1.1/DTD/svg11.dtd">
<svg t="1737096104744" class="icon" viewBox="0 0 1024 1024" version="1.1" xmlns="http://www.w3.org/2000/svg" p-id="4223" xmlns:xlink="http://www.w3.org/1999/xlink" width="200" height="200">
  
  <rect x="0" y="0" width="1024" height="1024" fill="#C0C0C0" />
  
  <path d="M642.125075 422.344946c-4.954839 0-10.460215-1.101075-15.415053-3.853763-15.965591-8.258065-22.572043-28.077419-14.313979-44.593549l167.363441-323.165591c8.258065-15.965591 28.077419-22.572043 44.593548-14.313978 15.965591 8.258065 22.572043 28.077419 14.313979 44.593548l-167.363441 323.165591c-6.055914 11.56129-17.617204 18.167742-29.178495 18.167742zM352.54228 759.824516c-6.055914 0-12.111828-1.651613-18.167742-5.505376a32.977204 32.977204 0 0 1-9.909678-45.694624l73.772043-113.96129c9.909677-15.415054 30.27957-19.819355 45.694624-9.909678 15.415054 9.909677 19.819355 30.27957 9.909677 45.694624l-73.772043 113.96129c-6.055914 9.909677-17.066667 15.415054-27.526881 15.415054zM495.682065 836.899785c-6.055914 0-12.111828-1.651613-18.167742-5.505376a32.977204 32.977204 0 0 1-9.909678-45.694624l73.772043-113.96129c9.909677-15.415054 30.27957-19.819355 45.694624-9.909678 15.415054 9.909677 19.819355 30.27957 9.909677 45.694624l-73.772043 113.96129c-6.055914 9.909677-17.066667 15.415054-27.526881 15.415054z" fill="#1FA589" p-id="4224"></path>
  <path d="M660.292817 972.882581c-17.066667 0-33.582796-4.404301-48.447312-12.662366l-448.688172-253.797849c-13.763441-7.707527-25.324731-18.71828-34.133333-31.931183-14.313978-22.021505-19.268817-48.447312-13.763441-74.322581 5.505376-25.875269 20.369892-47.896774 42.941936-62.76129l207.552688-135.432258c15.415054-9.909677 32.48172-15.415054 50.649462-15.965592 18.167742-0.550538 35.784946 3.853763 51.750538 12.662366l241.135484 134.88172c15.415054 8.808602 28.077419 20.92043 36.886021 36.335484 8.808602 15.415054 13.763441 32.48172 13.763441 50.098925v254.348387c0 17.066667-4.404301 34.133333-12.662366 48.99785-13.212903 23.122581-34.133333 39.63871-60.008602 46.795698-8.808602 1.651613-17.617204 2.752688-26.976344 2.752689z m-241.686021-521.35914c-6.055914 0-12.111828 2.202151-17.066667 5.505376l-207.552688 135.432258c-7.156989 4.954839-12.662366 12.111828-14.313979 20.92043s0 17.617204 4.404301 24.774194c2.752688 4.404301 6.606452 8.258065 11.561291 10.460215l448.688172 253.797849c7.707527 4.404301 16.516129 5.505376 25.324731 3.303226 8.258065-2.202151 15.415054-7.707527 19.819355-15.415054 2.752688-4.954839 4.404301-10.460215 4.404301-16.516129v-254.348387c0-6.055914-1.651613-11.56129-4.404301-16.516129-2.752688-4.954839-7.156989-9.35914-12.111828-12.111828l-241.686022-134.88172c-4.954839-3.303226-11.010753-4.404301-17.066666-4.404301z m-1.101076-33.032258z" fill="#1FA589" p-id="4225"></path>
  <path d="M847.475613 670.086882c-14.864516 0-29.178495-3.853763-42.391398-11.010753l-491.07957-272.516129c-20.369892-11.56129-35.234409-30.27957-41.84086-52.851613-6.606452-22.572043-3.853763-46.245161 7.707527-67.165591 11.56129-20.369892 30.27957-35.234409 52.851613-41.840861 22.572043-6.606452 46.245161-3.853763 67.165591 7.707527l491.07957 272.516129c20.369892 11.56129 35.234409 30.27957 41.84086 52.851613 6.606452 22.572043 3.853763 46.245161-7.707527 67.165592-11.56129 20.369892-30.27957 35.234409-52.851613 41.84086-8.258065 2.202151-16.516129 3.303226-24.774193 3.303226z m-491.07957-382.623656c-2.202151 0-3.853763 0.550538-6.055914 1.101075-5.505376 1.651613-10.460215 5.505376-13.212903 10.460215-2.752688 4.954839-3.303226 11.010753-1.651613 16.516129s5.505376 10.460215 10.460215 13.212903l491.07957 271.965592c4.954839 2.752688 11.010753 3.303226 16.516129 1.651613s10.460215-5.505376 13.212903-10.460215c2.752688-4.954839 3.303226-11.010753 1.651613-16.516129s-5.505376-10.460215-10.460215-13.212904l-490.529032-271.965591c-3.303226-1.651613-7.156989-2.752688-11.010753-2.752688z" fill="#1FA589" p-id="4226"></path>
</svg>
