<svg width="120" height="120" viewBox="0 0 120 120" fill="none" xmlns="http://www.w3.org/2000/svg">
<rect width="120" height="120" rx="27.9365" fill="url(#paint0_linear_265_6539)"/>
<g filter="url(#filter0_d_265_6539)">
<path fill-rule="evenodd" clip-rule="evenodd" d="M33.6363 31.9232L32.9097 31.9273C30.7347 31.9125 29.0472 32.2387 27.4233 33.805L27.4233 33.805C26.7624 34.511 26.3309 34.9719 26.0543 35.5121C25.5343 36.5277 25.5615 37.8235 25.64 41.5553C25.6508 42.0595 25.6594 42.5638 25.6656 43.0682C25.6806 44.5537 25.7054 46.0381 25.7343 47.5235H31.984V38.2739H87.9817V81.7722H66.2326V88.0219C68.9252 88.0373 71.6178 88.0505 74.3104 88.0585L74.6319 88.0594L74.6359 88.0594C75.9015 88.0629 77.1672 88.0663 78.4329 88.0734C79.7776 88.0817 81.1222 88.0891 82.467 88.0919C82.9798 88.0927 83.4925 88.0938 84.0053 88.0951C84.7412 88.101 85.4769 88.1069 86.2127 88.1074L86.8934 88.1071C89.0485 88.135 90.9425 87.8107 92.55 86.2451C94.3735 84.2458 94.4119 81.9746 94.3973 79.4099C94.3945 78.9692 94.3941 78.5284 94.3957 78.0876C94.4029 76.8827 94.4055 75.6779 94.4018 74.4729C94.3977 73.1916 94.398 71.9104 94.3999 70.629C94.4032 68.4804 94.4024 66.3318 94.3967 64.1832C94.3898 61.6859 94.3876 59.1887 94.3944 56.6914C94.4004 54.5278 94.4034 52.3642 94.4011 50.2005L94.4002 49.6624C94.3984 48.5531 94.3966 47.4438 94.3994 46.3345C94.4033 45.1062 94.4055 43.878 94.3998 42.6497C94.3971 42.1953 94.3949 41.7409 94.3932 41.2865L94.3941 41.1508C94.4128 38.254 94.4287 35.7871 92.294 33.5554C90.7164 32.5239 89.3121 31.914 87.4118 31.8916L86.7426 31.8989C85.9755 31.8945 85.2086 31.8916 84.4414 31.8949C83.8804 31.8975 83.3194 31.8983 82.7584 31.8974C81.228 31.8926 79.6978 31.8917 78.1675 31.8955C76.5403 31.8998 74.9132 31.9004 73.2861 31.8996C70.3857 31.898 67.4853 31.9003 64.5849 31.9064C61.7632 31.9124 58.9415 31.9156 56.1198 31.9132C52.8673 31.9101 49.6148 31.9092 46.3623 31.9129L46.3416 31.913C45.0445 31.9145 43.7474 31.916 42.4503 31.9152C40.8888 31.9138 39.3275 31.9135 37.7661 31.918C37.1907 31.92 36.6153 31.9217 36.0399 31.9232C35.2387 31.9214 34.4376 31.9196 33.6363 31.9232ZM49.2656 62.9535C42.8806 57.1086 34.4525 53.4979 25.7343 53.7732V60.0229C27.0847 60.173 28.4196 60.3229 29.7605 60.5248L30.3591 60.6166C31.7716 60.8194 33.093 61.0972 34.4403 61.5731L34.984 61.7728C38.172 62.9137 40.8753 64.4139 43.5647 66.466C49.2559 71.1991 52.5971 77.8725 53.4363 85.1469L53.7332 88.0218H59.9829C59.9829 85.0272 59.8772 81.8383 58.9742 78.9587L58.733 78.2722C56.7164 72.3615 53.8361 67.2787 49.2656 62.9535ZM25.7343 66.2728C32.0203 66.2728 37.2738 68.5837 41.7337 73.0225C45.6886 77.2205 47.4834 82.3044 47.4834 88.0219H41.2337L40.9837 85.897C40.4064 81.8735 38.4345 78.2137 35.1871 75.7099C32.1216 73.6341 29.3543 72.9913 25.7343 72.5225V66.2728ZM32.2155 80.9908C30.2157 79.3249 28.3189 78.7721 25.7343 78.7721V88.0218H34.984C34.984 85.1156 34.2675 83.093 32.2155 80.9908Z" fill="white"/>
</g>
<defs>
<filter id="filter0_d_265_6539" x="21.5966" y="27.8916" width="84.8069" height="72.217" filterUnits="userSpaceOnUse" color-interpolation-filters="sRGB">
<feFlood flood-opacity="0" result="BackgroundImageFix"/>
<feColorMatrix in="SourceAlpha" type="matrix" values="0 0 0 0 0 0 0 0 0 0 0 0 0 0 0 0 0 0 127 0" result="hardAlpha"/>
<feOffset dx="4" dy="4"/>
<feGaussianBlur stdDeviation="4"/>
<feComposite in2="hardAlpha" operator="out"/>
<feColorMatrix type="matrix" values="0 0 0 0 0 0 0 0 0 0 0 0 0 0 0 0 0 0 0.25 0"/>
<feBlend mode="normal" in2="BackgroundImageFix" result="effect1_dropShadow_265_6539"/>
<feBlend mode="normal" in="SourceGraphic" in2="effect1_dropShadow_265_6539" result="shape"/>
</filter>
<linearGradient id="paint0_linear_265_6539" x1="0" y1="0" x2="0" y2="120" gradientUnits="userSpaceOnUse">
<stop stop-color="#78C9FF"/>
<stop offset="1" stop-color="#2491E4"/>
</linearGradient>
</defs>
</svg>
